<svg id="Layer_1" data-name="Layer 1" xmlns="http://www.w3.org/2000/svg" xmlns:xlink="http://www.w3.org/1999/xlink" viewBox="0 0 613.09 319.85"><defs><style>.cls-1{fill:url(#linear-gradient);}.cls-2{fill:url(#linear-gradient-2);}.cls-3{fill:url(#linear-gradient-3);}.cls-4{fill:url(#linear-gradient-4);}.cls-5{fill:url(#linear-gradient-5);}.cls-6{fill:url(#linear-gradient-6);}</style><linearGradient id="linear-gradient" x1="1028.71" y1="1000" x2="1306.54" y2="1000" gradientUnits="userSpaceOnUse"><stop offset="0" stop-color="#4fc9f5"/><stop offset="1" stop-color="#352f8e"/></linearGradient><linearGradient id="linear-gradient-2" x1="936.16" y1="1037.91" x2="1238.85" y2="1037.91" xlink:href="#linear-gradient"/><linearGradient id="linear-gradient-3" x1="295.15" y1="77.6" x2="360.52" y2="77.6" xlink:href="#linear-gradient"/><linearGradient id="linear-gradient-4" x1="258.11" y1="77.6" x2="323.48" y2="77.6" xlink:href="#linear-gradient"/><linearGradient id="linear-gradient-5" x1="0" y1="159.92" x2="286.44" y2="159.92" xlink:href="#linear-gradient"/><linearGradient id="linear-gradient-6" x1="332.19" y1="77.6" x2="539.4" y2="77.6" xlink:href="#linear-gradient"/></defs><path class="cls-1" d="M1146.62,840.08a159.39,159.39,0,0,0-117.15,51.12h1.82a148.25,148.25,0,1,1-.88,216.79h-1.7a159.91,159.91,0,1,0,117.91-267.91Z" transform="translate(-693.46 -840.08)"/><path class="cls-2" d="M1217.56,992.68q-21.29-15.13-62.2-15.13H1034.29q-12,0-17.8-3.49c-3.25-2-5.12-5.13-5.65-9.49H944.43A63.88,63.88,0,0,0,949.14,984a50.93,50.93,0,0,0,15.3,20.13q10.3,8.31,25.94,13a116,116,0,0,0,25.22,4.25H1119a41.48,41.48,0,0,1,75.57,17.26L1162.3,1033a14.46,14.46,0,0,0-5,28.48l31.06,5.44a41.48,41.48,0,0,1-75.11-12.44H980.09l-43.93,56.8h207.23q25.26,0,43.4-5t29.77-14.3a54.21,54.21,0,0,0,17-23,83.53,83.53,0,0,0,5.33-30.6Q1238.85,1007.82,1217.56,992.68Z" transform="translate(-693.46 -840.08)"/><polygon class="cls-3" points="295.15 106.54 317.43 106.54 360.52 48.66 346.15 48.66 338.24 48.66 295.15 106.54"/><polygon class="cls-4" points="258.11 106.54 280.39 106.54 323.48 48.66 301.2 48.66 258.11 106.54"/><polygon class="cls-5" points="243.35 106.54 286.44 48.66 284.87 48.66 44.57 48.66 0 106.54 44.57 106.54 104.44 106.54 104.44 271.18 173.29 271.18 173.29 106.54 240.78 106.54 243.35 106.54"/><polygon class="cls-6" points="495.17 48.66 375.27 48.66 332.19 106.54 340.83 106.54 495.17 106.54 539.4 48.66 495.17 48.66"/></svg>