<?xml version="1.0" encoding="utf-8"?>
<!-- Generator: Adobe Illustrator 16.0.0, SVG Export Plug-In . SVG Version: 6.00 Build 0)  -->
<!DOCTYPE svg PUBLIC "-//W3C//DTD SVG 1.1//EN" "http://www.w3.org/Graphics/SVG/1.1/DTD/svg11.dtd">
<svg version="1.1" xmlns="http://www.w3.org/2000/svg" xmlns:xlink="http://www.w3.org/1999/xlink" x="0px" y="0px"
	 width="664.467px" height="406.479px" viewBox="0 0 664.467 406.479" enable-background="new 0 0 664.467 406.479"
	 xml:space="preserve">
<metadata><?xpacket begin="﻿" id="W5M0MpCehiHzreSzNTczkc9d"?>
<x:xmpmeta xmlns:x="adobe:ns:meta/" x:xmptk="Adobe XMP Core 5.3-c011 66.145661, 2012/02/06-14:56:27        ">
   <rdf:RDF xmlns:rdf="http://www.w3.org/1999/02/22-rdf-syntax-ns#">
      <rdf:Description rdf:about=""
            xmlns:dc="http://purl.org/dc/elements/1.1/">
         <dc:format>image/svg+xml</dc:format>
         <dc:title>
            <rdf:Alt>
               <rdf:li xml:lang="x-default">01. Flat Birthday background</rdf:li>
            </rdf:Alt>
         </dc:title>
      </rdf:Description>
      <rdf:Description rdf:about=""
            xmlns:xmp="http://ns.adobe.com/xap/1.0/"
            xmlns:xmpGImg="http://ns.adobe.com/xap/1.0/g/img/">
         <xmp:MetadataDate>2020-12-22T19:21:54+05:30</xmp:MetadataDate>
         <xmp:ModifyDate>2020-12-22T19:21:54+05:30</xmp:ModifyDate>
         <xmp:CreateDate>2020-12-22T19:21:54+05:30</xmp:CreateDate>
         <xmp:CreatorTool>Adobe Illustrator CS6 (Windows)</xmp:CreatorTool>
         <xmp:Thumbnails>
            <rdf:Alt>
               <rdf:li rdf:parseType="Resource">
                  <xmpGImg:width>256</xmpGImg:width>
                  <xmpGImg:height>148</xmpGImg:height>
                  <xmpGImg:format>JPEG</xmpGImg:format>
                  <xmpGImg:image>/9j/4AAQSkZJRgABAgEASABIAAD/7QAsUGhvdG9zaG9wIDMuMAA4QklNA+0AAAAAABAASAAAAAEA&#xA;AQBIAAAAAQAB/+4ADkFkb2JlAGTAAAAAAf/bAIQABgQEBAUEBgUFBgkGBQYJCwgGBggLDAoKCwoK&#xA;DBAMDAwMDAwQDA4PEA8ODBMTFBQTExwbGxscHx8fHx8fHx8fHwEHBwcNDA0YEBAYGhURFRofHx8f&#xA;Hx8fHx8fHx8fHx8fHx8fHx8fHx8fHx8fHx8fHx8fHx8fHx8fHx8fHx8fHx8f/8AAEQgAlAEAAwER&#xA;AAIRAQMRAf/EAaIAAAAHAQEBAQEAAAAAAAAAAAQFAwIGAQAHCAkKCwEAAgIDAQEBAQEAAAAAAAAA&#xA;AQACAwQFBgcICQoLEAACAQMDAgQCBgcDBAIGAnMBAgMRBAAFIRIxQVEGE2EicYEUMpGhBxWxQiPB&#xA;UtHhMxZi8CRygvElQzRTkqKyY3PCNUQnk6OzNhdUZHTD0uIIJoMJChgZhJRFRqS0VtNVKBry4/PE&#xA;1OT0ZXWFlaW1xdXl9WZ2hpamtsbW5vY3R1dnd4eXp7fH1+f3OEhYaHiImKi4yNjo+Ck5SVlpeYmZ&#xA;qbnJ2en5KjpKWmp6ipqqusra6voRAAICAQIDBQUEBQYECAMDbQEAAhEDBCESMUEFURNhIgZxgZEy&#xA;obHwFMHR4SNCFVJicvEzJDRDghaSUyWiY7LCB3PSNeJEgxdUkwgJChgZJjZFGidkdFU38qOzwygp&#xA;0+PzhJSktMTU5PRldYWVpbXF1eX1RlZmdoaWprbG1ub2R1dnd4eXp7fH1+f3OEhYaHiImKi4yNjo&#xA;+DlJWWl5iZmpucnZ6fkqOkpaanqKmqq6ytrq+v/aAAwDAQACEQMRAD8A9U4q7FUsl1G6uJ3t9NRW&#xA;MZpLcyf3anwFOpwNwxgC5N/UdZpy/SXx/wAvpLx+WK8cP5v2rNMvb/0Lm41EenFHvGSvE0UHl8J3&#xA;7ZDJkEImUuQTkhGwI82D675s1HULmSK2f0bZCV8dx2p3+Zzz3tLtnJmlzqPd+vvd1p9HCAs7lBzf&#xA;p/THglaVkeVBLFyCiqnpulCMw5nNpzEyBjxCx7m2Ph5LHczbyj5nOqRGC4+G6j61pU06g/5752PY&#xA;vaxz+if1jke/9rqNbpPDNjkyPOhcB2KsTnl87/43iSOK3/Q/1eTcyTenw9aOrNROP1jj9la0pXfA&#xA;7GIweAbJ478u4+f0snu7q2tLWa7upFhtrdGlnmc0VEQFmZj2AArkgLdcTT548x/85cJFqEkPl7RF&#xA;uLGNiqXd3KyNIB+0IkHwDwq1fYZsYdn7eouFLV77BKv+hu/Mf/Vgs/8AkbLk/wCT497H84e53/Q3&#xA;fmP/AKsFn/yNlx/k+Pev5w9zv+hu/Mf/AFYLP/kbLj/J8e9fzh7nf9Dd+Y/+rBZ/8jZcf5Pj3r+c&#xA;Pc7/AKG78x/9WCz/AORsuP8AJ8e9fzh7nf8AQ3fmP/qwWf8AyNlx/k+Pev5w9yd+VP8AnLO2utTi&#xA;tfMmkLY2czBfr1rI0giqacnjYVK+JU19jleTQUPSWcNXvuH0JFLHLGksTiSKQBkdSCrKRUEEbEEZ&#xA;rnMXYq7FUPqAvjaSCxaNbmnwGUMy+/2Spr4YsZ3W3NB+Wo9Wj0mBdTZTMEUKAG5gcekhZmq2EteA&#xA;SERxJpgbnYq7FXYq7FXYq7FXYqg9YuHt9NnkT7dOKU61YhdvvxbMUbkAq2NolpaRwIPsj4j4t3OL&#xA;GcuI2r4sUq80Fxolxw6/D0/1hmp7cv8AKyry+8OTo/7wMH8kfo6W6itbu1W4M6/u3bfiygsar0IO&#xA;ch2J4MtR4eSHHxcvKvJ3Gv4xHiiapnHmNdOTTJLq8tRcrbj4E6EFyF69hWlc7DteOGOA5MkOPg5f&#xA;HZ0+lMzPhiatg3k9n/xMhiHFWALKOg+14/5Nc4zsMn8zGu/9DudcP3Rt6dnpDzrsVdirA/z2kkj/&#xA;ACl8xtGxVjAikjwaaNWH0g0zI0v94GnP9BfDubx1bsVRWm6be6nex2VlH6tzLX04yypXiCx3cqOg&#xA;8cEpCIsoJpM9M8keZ9Utjc2FmJ4A7RlxLCvxIaEUZwcrlnhE0SgyARf/ACrLzv8A9W3/AJL2/wD1&#xA;UyP5rH3o4wx+/sbqwvJbO7T07mBuMqBlajeFVJH45dGQIsMgUPhS7FX3p+VEjyflp5YZ2LN+jbYV&#xA;O5oIgB+GaDP9Z97tsX0j3MqypsdirsVdirsVdirsVdirsVdirsVdiqD1i3e402eNPt05JTrVSG2+&#xA;7FsxSqQKrY3SXVpFOvR1qR4HoR9BxYzjwmlfFip3NvHcW8kEm6SKVP05VmwxyQMJciGUJGJsPNL/&#xA;AEjWfL+ome1BKVYxyJTbkCDxrtvXp1Gee6nR59Hl4hsRyl0egx5seaNFCDUtemjltlM8i3B/eJKT&#xA;xJrWtWr+GYg1GokDAykRPmOdtvhYwQdtmY+TfLMunq15dj/SZOgIoRUUrTttsM6zsLsqWL95MUeg&#xA;/S6rXasT9MeTKc6Z1rsVdirAfz6/8lH5j/4wxf8AURHmRpf7wNOo+gvkHyt+X3nPzXHPL5f0qW/i&#xA;tiFnlQoiKzCoXlIyAmnYZuJ5ow5l10Mcpcgnv/Khfzc/6lyb/kbb/wDVTK/zWPvZfl59zv8AlQv5&#xA;uf8AUuTf8jbf/qpj+ax96/l59zv+VC/m5/1Lk3/I23/6qY/msfev5efc7/lQv5uf9S5N/wAjbf8A&#xA;6qY/msfev5efc7/lQv5uf9S5N/yNt/8Aqpj+ax96/l59zv8AlQv5uf8AUuTf8jbf/qpj+ax96/l5&#xA;9zH/ADT5C83+VDb/AOINMlsBdcvq7uVZWK05AMhZaivSuW48sZ/SWE8co8w+u/KWuNoX5H6Lqqxi&#xA;SS30q19ND0LuFjStO3JhXNFqTU5e93vZ2DxZQh3vOX86fmDrE7+hfXkjj4jHZhkCg+0IG3zzFEy9&#xA;adBpoDcAe8u+v/mf/v7WfvucPFJj+W0f9D5/td9f/M//AH9rP33OPFJfy2j/AKHz/a76/wDmf/v7&#xA;WfvuceKS/ltH/Q+f7VO41n8xraIzXN3q0MK05SSPcIorsKk0GDjkmOk0kjQESfeu8tfm15t0bzbo&#xA;9tqN8+paHq9zHYzwXADSQSTMFSaOSnqGhPxKxO3TfMzABkiQfqiLdD2zoo6cxnD6JGq7j5PozKXW&#xA;OxV2KuxV2KuxVZPPHBC80p4xxgsx9hleXLHHEylyDKMTI0Hneq+c9SubhoNNHowKxUFaipr0+GhJ&#xA;+mmcJru3c2SVQJjHoBz+bvMOhhEXLcqL6v5s0mVGuGchlVwrchUMAf2iy18RlB1ur00hxGcb333H&#xA;2/gMxgw5Bszby55gg1i09RfhmUfvF6e1afrzseyu0xqYb7THP9YdRqtMcUvJNmVWBVgCD1B3GbQg&#xA;EUXFBWR21tG3KOJEbxVQD+GVwwQibjED4MjMnmUNpt1NMbmKcgyQTMgIFKr1XLWWSIFEdQs1TW7T&#xA;TmRJQzyOOQVKbDpU1IzW67tTHpiBKyT3M8Onlk3CB/xhY/75l/4X+ua//RHi/my+z9bf+Ql3h3+M&#xA;LH/fMv8Awv8AXH/RHi/my+z9a/kJd4Yz+ZFwvmryRqugWYMFzfxokcs32FKyo/xceR6L4Zbh9p8M&#xA;JAmMvs/W15OzpyiRYSX8lNLm8heVbrR9Sdbqee+ku1kt68AjwxRhTz4mtYjlmp9qcOSViMuXl+tj&#xA;g7MnAUSHoH+MLH/fMv8Awv8AXMb/AER4v5svs/W3fkJd4d/jCx/3zL/wv9cf9EeH+bL7P1r+Rl3h&#xA;OLO7hu7dLiEkxv0rsRTYg5u9NqI5oCceRcTJAxNFSOsaQDQ31uCOo9VP65kU0+LHvDX6Z0j/AJbr&#xA;f/kan9caXxY94XJq2lu6ol5AzsaKqyISSegABwUoyR7w8M/5y7/5RzQP+YyX/k1mw7P+ouNrOQZJ&#xA;H/6znpn/AGzdP/5OxZhav6pe93PYn99D4/7koL8tLm4tPJmu3Nq/o3AuLZVlABIDMqnqD2Y5Ticr&#xA;2mkRwkd36WRT69fi51C0h1W8NzYrOavHAEYwVB6Cu9Mup5Q5pWQJGxfd0QN5rPme082atqK3eqXe&#xA;m6REl02iw/o0wzoURHVCZBcLw5mQ8+P2TTsDeIxMQNrPXdzOI3e/2MLt/NPm7Wdauri289T6Vokt&#xA;xpDWjXEEBCprEMlw9uHjhlX1IOAQcmC9eTDLzjjEfTZ3+xr45E/Vtt9rIPIF55w1LQtVvNV19fM2&#xA;iXWiSSLdxoiQJeiSZHiVGit59okRv3kY67ZRqhECgKLl9nyl4sTd7j73kN5/ykPlb/ts2f8AydGV&#xA;6DnL+q9D7S/3UP6/6C+xMpefdirsVdirsVdiqQ+dppYtBlMfUnf6FZh+KjNH7QyI09DrIfpLm6CI&#xA;OXdgnlu7isNQtblozLFECWVRU0KkFh8uucR2bqRh1EckhxAX936Hc6qBnAi6tkfmuKZtLjuLW49b&#xA;TXMJMTiro3pAI3I7/EtK/PN925jkcAnjlxYTw7HmPTsb57jn7/NwdFIcdSFT3+9LvIMjprska/Yc&#xA;VYdt0Yn/AIgMw/ZyZGoiO8H7rb+0ReO3o+egugaZlVSzGigVJPQAYqluiVlW6u6US5mZo/dF2BwB&#xA;uzbUO4JH5v8A+OnF/wAYV/4m2cZ7R/34/qD75OfofoPvS+3h0togZ7mSOXfkix8gPprmtw4tOY3O&#xA;chL+rf6XIlKYOw296p9W0T/lsl/5Ff8AN2W+DpP9Ul/pf2sePJ/NHzd9W0T/AJbJf+RX/N2Pg6T/&#xA;AFSX+l/avHk/mj5qF3FYIq/Vp3lYn4gycQB95zH1EMMQPDkZe8V+lnAyP1Ck6s7ny7odha3Wq3EU&#xA;E15UxSTew5UXrSgzrOx9DjhhjMgGct3CyjLlkYwBIj3JZp2pf4o0e/1dbAWdvBMy2E1aNNGn2i4p&#xA;/mdsHa+hxzwyyAVKO99/vb5Y/AyRhxcRI38iyXyuf9w8fsz/APEsv7C/xWPvP3uDrP7wpe9pqvNq&#xA;eXtPYVNG9RN/fePNy6oxl/Mj+Pg19U1b/qXdP/5GJ/1TxXhl/Mj+Pgq2lrqYuoi+g2MKBwWlR15K&#xA;K/aWkfUYpjGV/RH8fB5J/wA5d/8AKOaB/wAxkv8AyazO7P8AqLHWcgySP/1nPTP+2bp//J2LMLV/&#xA;VL3u57E/vofH/clD/ldYm98m69bhnQ+tFIDGnqv+6AkoqVXkTwoBXKcLme0cOIxHl+lDz+bbqYT8&#xA;tB8xK9yrLNKnlnhIwf7VXWQNv33zN8D+lH/TPKHHI35/0EYh0j/lcPmI6atv6/8AhMfpJWCqPrXr&#xA;na5B2Del6fLl+zTJb+EL/nOSK4zX81JodMsNb8m6noghif8AQlpousxaXpdhHPB9durZpJCkcbkX&#xA;cczEniOO3QnJ8RjIHvsbn8UxoGJHdRa8hzMnmLzjZ2un3Oi6S2h/WLfSZ7FtMCsWlQy/VyzB2bjx&#xA;9XuBx/ZyGpH7sG7PvtyNB/fjoLHl1eZXn/KQ+Vv+2zZ/8nRlOg5y/qvR+0v91D+v+gvsTKXn3Yq7&#xA;FXYq7FXYqhdTsEvrGW2ag5j4SexHTMTXaUZ8Rgev3tuHJwSBeYhNU8u6h/dsPTqFYrzHBtuLqOo9&#xA;8874c2kzWBUx0P43D0NwzwX6n5guNSiitbaDhAix1hjQqpkRAnIsewpQb9MnrNdPPEQAEICth3gV&#xA;/Z5McOmGMmRO7K/JPl+awhe8uV/0iUVUHbr8+g2oM6X2f7NljHiTFEjb9brdfqRM8I5JhZavqJR2&#xA;nspXJc+mI1AVQNuJJ986Zxp4o9CFR4dT1H4Lhfqdmftxg8pHHgSOgxYgxhy3KaRxpHGsaAKiABVH&#xA;QAYWkm2J+cAf0lEabGECv+ybOM9ox+/j/U/SXaaH6D70izn3NRbapdNNHMfT5xAhaRoBQ7bilDmY&#xA;ddkMhL03H+iP1NQwxojv81X9O3//ABV/yKT+mXfyrm/o/wClj+pj+Wj5/MqF3qNzdKqy8KKajiiq&#xA;fvAGUajWTygCVbdwA+5nDEI8ld20PVdIGk67AZYI25QTJsyH2I3B+XbNz2Z2zDHjGPLyHItZjkxz&#xA;48Z3Rd/q9hHpkelaVF6VpGqxjagCL0C9/mTh7U7Zhkx+Hj5Hmf1NWLTy4+OZ3TryuCNHj92en/BZ&#xA;t+wx/gsfj97iaz+8KYz26zGIl3T0nEg9NynIjs1PtL7HNu4ZjaXSeXYXkZzfX6liTxW6lAFTWgAO&#xA;ww21nAO+XzXQ+XoYpklF7fOUYNwe6lZTQ1owJ3GNqMIB5y+bxb/nLv8A5RzQP+YyX/k1mf2f9Rad&#xA;ZyDJI/8A1nPTP+2bp/8AydizC1f1S97uexP76Hx/3JY5oV21p+VXmicaoujBbi0V9RZJZAiPNGjq&#xA;VhSWQ+orFNl/a8N8GjFy5W5ntGaMd62/SkfmXVfyxs9Tt7/yZqVpZWv1W5tdUtdUtddeGZLjiAf3&#xA;cfIcQDuHHXNjCOQipD5cLzEjAG4/pX6pp8F55y87rJ+i10+5ezg1Sa8g1WSQWpjtXUwtbH0VCyhW&#xA;HMchSrfBXGJqMed/DzUi5Hl9rLvMHk3QdK8saZpfkPV00jW9PEbR6v8A6RJ6sE8dZXLQpLGxn+F9&#xA;hTwpmPHMTImYsdy5JQiKBoj3pj5U0iaPSdQ1HVtcbWfMkehzWF/II5FRo1uLm4ikDSpGxPGcJ07Z&#xA;XnyAggCh+xy+z5iWWO9mx97xG8/5SHyt/wBtmz/5OjBoOcv6r0ftL/dQ/r/oL7Eyl592KuxV2Kux&#xA;V2KuxVSuLS2uF4zxLIB05AGnyynNp8eQVOIl72UZmPI0pQ6VpsL84rZFcdGpUj5VynHoMEDcYRtn&#xA;LNM7EorMxqdirsVdiqnNbW09PXiSXj9nmoanyrlWXBDJ9cRL3i2UZmPI0pfovTP+WSH/AJFp/TKv&#xA;yOD/AFOH+lDLxp95+bv0Xpn/ACyQ/wDItP6Y/kcH+pw/0oXxp95+bCPzrRNO/K/Xr3T1FneQxRmG&#xA;5tx6UqEzxglXSjDY02OX6bs/TnIAccP9KP1NWfPkEDUj82Gf843LqeveR7681G7e9nj1OWFZbt3m&#xA;cILeBgoZ+R41cmmWa7s7TiYrHAbfzR+pOj1U+A8RJ373q3+G/aL/AIH+zMP8hg/mQ/0ocv8AMnvK&#xA;T6rd+WdJuRaX9/aQ3ZXn9VALzBD0YxorOFPiRTJx7MxHljj/AKUMTrK5kouz8+eTLa3SEajXj4Qz&#xA;gb/7DMuOnMRQFBxZ5hI2rf8AKxfJv/Vw/wCSM/8AzRkvBl3MfEij9J81eXdXme307UIZ7lF5vbA8&#xA;ZghNORibi/H3pTIyxyHMJEweSa5Bk8C/5y7/AOUc0D/mMl/5NZsOz/qLh6zkGSR/+s56Z/2zdP8A&#xA;+TsWYWr+qXvdz2J/fQ+P+5LCZXSP8lPNbueKJeaazE9gL2AnDofrHx+5y/aX+H3fpYv5p8w30175&#xA;wu5vPMOpaFqKX36M0db65l+Gablbotu6iJeCdh07Zs8cBUfTRFb08tOXP1bPQfN9p5K1PWIaXWpW&#xA;NzWWx1exs3aCC/mi0z60vqMki8f3boDIUYsF4UpvmPjMgOnl5bt0xEnr+AnOiXsR8tWi6fdDRzca&#xA;bo0lrG8zgrCtl/d+qoDNxDKK03zHyD1G+8uLOXMA8P0/cnWnzmW01jndC8mj0d0mnDtJVqyn7Tbn&#xA;YjKZ8nN7NN54739P3vn68/5SHyt/22bP/k6Mt0HOX9V6j2l/uof1/wBBfYmUvPuxV2KuxV2KuxV2&#xA;KuxV2KuxV2KuxV2KuxV2KuxVgP59f+Sj8x/8YYv+oiPMjS/3gadR9BYl/wA4l/8AkudR/wC2xN/1&#xA;C22Xa/6x7v1tek+n4vYNXu5LPSr28jAaS2glmRT0JjQsK/dmFEWackmgl/k7RLfSdCtkUCS9uUW4&#xA;1K8O8lxcyKGllkagLFmO3gKAbDJZJWWMI0E7yDN2Ksa/MGwhk8tXmqIAmqaLDLqGmXY2eKe3QyAB&#xA;hvwk48JF/aUkZbiPqroWGQbX3Mit5lmgjmUELIquAetGFcqLN4L/AM5d/wDKOaB/zGS/8ms2HZ/1&#xA;Fw9ZyDJI/wD1nPTP+2bp/wDydizC1f1S97uexP76Hx/3JYF5b856x5fiuIbIQy290VMsFxH6iFl6&#xA;GlRmLGRHJ6rVaHHnrj6Jx/ytjX/+WHTv+kb/AJuyXiycP+Q8Hn+PgqH84fNBPI29iTWtfQNa041+&#xA;34bYPEKf5Ewf0vn+xv8A5XF5poB9XsaAAAegdgNgPt4+IUfyHg8/x8ENqP5reab2wuLIi2gjuUMc&#xA;rwRFX4NswBLNSo2xMy2Yux8EJCQvZhekaPfeYfPPl3S9NjM0tpfwX1/IoqsFvC4ZnkPQVH2QTudu&#xA;+ZujHDGUjyIp1ftFmjLgxjeQlZ8g+tsodI7FXYq7FXYq7FXYq7FXYq7FXYq7FXYq7FUg4+aP8Tcu&#xA;UP6O9Pwl4+n6nTrx9anfpTDtTjfvPE6cP4+1P8DksB/Pr/yUfmP/AIwxf9REeZGl/vA06j6CxL/n&#xA;Ev8A8lzqP/bYm/6hbbLtf9Y9362vSfT8Wafmp54svLWhTQTQNPLf29wq0YIqKI+JZmNe7DbMKJ9Q&#xA;Hm7XBozlhOV8MYhjen/ntZCwtguku6iJAHE60ICjcfBlcp0Ts7LH2GZRBExRHd+1X/5Xxaf9WeT/&#xA;AJHr/wA0YPEZ/wAgn+f9n7Xf8r4tP+rPJ/yPX/mjHxF/kE/z/s/alfmr877O68savanSni+sWVxD&#xA;6hnWimSJlB+wPHLMM7mPe0ansUwxykZjYHp+1nn5dedrHzRpJNvC0EtmkSyxsQ4Kup4MrAAGvA43&#xA;ZLg6rRnCIm7Ehs8u/wCcu/8AlHNA/wCYyX/k1mw7P+ouo1nIMkj/APWdNM/7Zun/APJ2LMLV/VL3&#xA;u57E/vofH/cl5n5S8nax561iTTbFns9Es34azq4FCCOttb16ynueiDr2BOLEIDjlz6D9Jc/tXtUy&#xA;JxYj/Wl+gfpL6J0/yP5QsLGCyt9HtPRt0EaGSFJHIHdncMzMe5JqciZEm3TDJIdT80R/hXyv/wBW&#xA;ey/6Rov+acFr4su8u/wr5X/6s9l/0jRf8042viy7y7/Cvlf/AKs9l/0jRf8ANONr4su8o60sbKzj&#xA;9K0t47ePrwiRUWvyUDEm2CtgV2KuxV2KuxV2KuxV2KvOvzd816zpFx5d0rS7hrNtZuJxc3SBTIIr&#xA;WH1TGhYHjzJALDcDpl+GAIkT0cTV5TCOzFP0/r3/AFc7v/pIl/5qwOr/ADGTvLv0/r3/AFc7v/pI&#xA;l/5qxX8xk7y2vmHX1YMNTu6jcVnkI+4tTFP5jJ3l6d5G1m91XRWmvGDzRTND6gABYBVYEgbV+KmV&#xA;yDtNJlM4We9kORcp2KoDUNc06wqJ5fjG5RdyPn2H05r9X2nhwbSPq7hzb8WnnPkGB/mfqtv5o8h6&#xA;zoOlfFqF7Gi26uyBSUlRyCeRpsuY2l9pdOMgMhID4frZ5+zcpgaSz/nGPRdV0byPqljqls9pdpq8&#xA;zGKQdVNtbgMpFQymh3Bpm/zarFnInjkJRro6/DiljBEhRtNPz00BL7y1HqShWmsnEbRybxvFOQrB&#xA;h/rccoO27vOysh4jjoETHV4P/uXjQJBBahFACL6jqAB2oIzkf3Z3Jl+Pi9B+/iKjGFDzI/3qi9z5&#xA;kXpZW7/6s7fxQZMRw/zj8v2tUsurH8ED/nn/AIlQfUfNS9NIjf5XCfxpkxiw/wA/7GmWq1o/yIP+&#xA;eELcax5ieNoptB9SNwQyGQOCPAgA5ZHBiBsZHGy67VkGMtPYPnb6Q/IXSGg8kxaxPC1reasSZLU7&#xA;CKO3kkiiUCg6irfT7ZVOAjI0eLzdXrdXPLQlHg4f4fx8GF/85d/8o5oH/MZL/wAmszuz/qLpdZyD&#xA;0/8AKhEf8sPLCuoZTpttVSKj+7GYuo+s+9yMJqIZZHFHGCI0CAksQoAqTuTt45S2LsVdirsVdirs&#xA;VdirsVdirsVdirsVYrF5p1h/OkmjHSp1s1gRw5MNRWZ0+sE+p/dsF2H2vbA7A6WAwcfEOK/PuG3L&#xA;n9jKsLr3kP55f8pN5H/4zaj/ANQozJw/RL4fe4Gv+kI7yBZWsyarcyWqXl1awq1rbuAwZiHNADXc&#xA;lQK5VJx9HAHiNWQE/uPKmmR+ZJtQ+qq1hBArm0VQUkuXLKECfZ6UNPEjI3s5MtPEZDKtgOXmwbX9&#xA;J1azujPfWYs1uWZo0j4emO/FfTqooMmC67NjlE3IVbO/yv8A+OBcf8xb/wDJuPIS5ux0H0H3/qZf&#xA;kXOSvzHqw03TXmBpI1Qh8KCpb6Bmr7X1p0+Gx9Uth+tydLh8SddHmdrbXmt38cbHlJO37uNieKjq&#xA;WbxNNznn2KGTUZRjj9Uj/a9BOUcUb6BONR8m2sdmZLaWOWW3iaS5QgqSFdlZo9hsvGn+3m01XY3B&#xA;j4sc+KUIkyHuJBI91fi3Fxa4mVSFAnb9qE8ta5daZqCRO5kgk6VNSQOqn3A3U5i9l9oywZBIcuo7&#xA;w2arTjJHzZh+YVuLzyPqyr8S+h6wPtEwlr/wuekEgxsOq7Plw6iPvr57Pm/KXtWY/lZLoaeZKan6&#xA;QndAunPOvOMT+otNuzUrxJ6H6MlCrdb2qMhxei6613KH5l2U9r5nk9WwhsPWQSILZuUUoLMPVGwo&#xA;WpuKYz5suzJiWLaRlXf08mK5F2D6b8m2v1XynpEPQi0hZh/lOgZvxOZEeTwutlxZpn+kXjX/ADl3&#xA;/wAo5oH/ADGS/wDJrNj2f9RdVrOQeo/lL/5LLyv/ANs22/5NjMXUf3h97kYfoDLMpbEDrVreXWmz&#xA;w2kvpysjilAeYKkcKn7NfHMbV45zxkRNGj8duTdgnGMwZDZfpNvd29hFFdS+rKqqCaBeICgcdutP&#xA;HJabHKEAJGyjNKMpEgUEXl7U7FXYq7FXYq7FXYq7FXYq1xXkWoORFC3eg7fjitt4q8h/PL/lJvI/&#xA;/GbUf+oUZk4fol8PvcDX/SEmsbu8tbhZLSdreU/D6iMU2PiR2yDrISIOxpnEvm3T7HUdJtI7k3Vn&#xA;bkyahebsZJXRk5Gu5C8uX3eGQp2B1MYyiLsDmUN541zSrnSYLG0u/rkv1l7lpBWioxkISp8PUoPY&#xA;YxDDV5YmIAN72nP5X/8AHAuP+Yt/+TceCXNv0H0H3/qZfkXOYf8AmSrnTIioNAH5feh/UDnLe0wN&#xA;Q/zv0O07LPqP472LaK18NRgk09PUuUPONOxAG4O42pnI9nnKM8TiFzHIfe7PPw8BEuTL9Sistc0c&#xA;3LxmDUIrdpwATQKrNVT4gshzrtZDFrdPxkcOWMDL5E7fMOqxGWHJwg3EmmBCpubYL9r1QfoANfwz&#xA;isPN3R5F6nNZtd+WJLMirXFkYSp8Xi40/HPVNGD4EAf5kfuebE+HNxd0r+18wujIxRwVdSQykUII&#xA;6gjC92DaeeT/ADRJ5e1P12hS5tJuKXUDryPFWDck3FHX9nDE04ms0vjQq6I5fjuU/NfmSfX9T+sv&#xA;GsNvCno2kCCgSJWJUHc/EeW5xJtlpNMMMK5k7n3pTBBLcTxwQqXllYJGg6lmNAB8zgciUgBZ5B9W&#xA;W8KwW8UK/ZiRUX5KKZkvn0pWbeDf85d/8o5oH/MZL/yazYdn/UXC1nIMq/Kr8xPLkX5e6FaSNKJr&#xA;OzhgmHp1HNIxWlD0yjU4yJljDWQiAD0ZZ/ysby1/PL/yLOUcJZ/nsbv+VjeWv55f+RZx4Sv57G7/&#xA;AJWN5a/nl/5FnHhK/nsbv+VjeWv55f8AkWceEr+exu/5WN5a/nl/5FnHhK/nsbv+VjeWv55f+RZx&#xA;4Sv57G4fmN5ZJAMkoB7mM7fdjwlfzuNkVrdW93bx3NtIJYJRySRehGRcqMhIWFXFLsVdirsVdirs&#xA;Veb/AJw+WNZ1O58uavpts94mj3Fx9bt4Ryl9K6h9L1FTq/BgKqtTToMvwyFSB6uJrMRnHZio0PXS&#xA;K/oy93/5dpv+aMDq/An/ADS3+g9d/wCrZef9I03/ADTijwJ/zSg72OaxnggvopLSa55fVo7hGiMn&#xA;AVbgHC8uIO9MIHVjLHKPMU9O/K//AI4Fx/zFv/ybjyqXN2mg+g+/9TL8i5yB1rTE1Gwe3NOf2oye&#xA;laUofY9MwO0tENRiMevMe9u0+bw5W8vkttU0S9+FZFMDVjkUVdPZh3FO/Smed5MWXT5bFxnH8fjv&#xA;eiE4ZY+9F3/m6/v7ZLVeW68Z1iShlPItU0VadelcytV2rqM0BA7CvVVere+g+xqx6OEDxfLyRXlL&#xA;y5PfXv1m4AEUJ4uoNeOwYrX+ZgR8hl/ZHZUs0wSPQOZ7/IfjZr1mrEI0Ob0npnoToEpuvKPle7uH&#xA;uLnSrWWeQ1kkaJCzHxJpucHCHJhq8sRQlKveo/4G8nf9Wa0/5FL/AEx4Qy/PZ/58vm7/AAN5O/6s&#xA;1p/yKX+mPCF/PZ/58vmr2XlTy1Y3C3NppdtBcJ9iVIlDLXwNNsaDCeryzFSkSPemuFx3gX/OXf8A&#xA;yjmgf8xkv/JrNh2f9RcPWcgzH8n9E8vS/l/or3FlbGV7K3dnZEDMxTck9zmNqJHjPvbhhx8ESQOS&#xA;E832WlW/mJorJI0h9FWeOOnEOT4Dp8NM0/a2XJDCDAkHi6d27LQYMMtSRICuH7bH6GP3iRqy8ABt&#xA;vTIdi5cs4y4yTvtbX25hxQlHwwBtvShm6dEj9K0PUNUMgs1RvSpz5uifarT7RFemAltx4pT5Jh/g&#xA;XzD/AL7i/wCR0f8AzVg4g2flJ/gpg0d7pcVna3OiadLJMRDFIxV3dtt2If369MW2jCgYxb12z1GP&#xA;S53l0bTraMAcp4GX1F+IfZo+IXLGQibjEMg/LFmby/MCSQt04UeA4If1nIy5uVoPoPvZdkXNdirs&#xA;VdirsVdirsVdirsVSnzR5X0nzLpMmmanGWiYh4ZkPGWGVfsTQv1V1PQ/QdqjJwmYmwwnASFFb5V8&#xA;uroGlixFy92xb1JJ5FVWZ+CqTxXYV4VwSNlhhwjGKDAvNfm3zpp+oXccCOsa3DrB+7ehiDEKRTY7&#xA;U3zidVrdTDPKJlKMbNdNr2en0ukwTgCedbpTN5988L9X48/jUF/3b9T175jx7Szm7yFyBoMG65fN&#xA;vmm7aVbqL1BG5WPnExoPYk5i6nV5MgHFLi99JGkxR5bfFZLquryRtG1tRWFCVWVG+hlYEfRmHGRB&#xA;tJwwPX7WQ/kTZTWWj+YopYJLb1Nbnmijm9Tk0b29uA4MpLsrMjANU9DnpOi1Iy4MfqBkIC6rbnzA&#xA;5PMZsXBkkADXFs7z1qGqXfmQaRHK0cCGJIkBKqzyhTyanXdqZmxGzpdXOUsnClN35d1a1jDzXcak&#xA;ryRC8oJHq+l3UKPiI6kbY20ywyHM/jkqxeU9dlbitwnRm+J5UICkDdWUMOR5cajficbZDTzPVf8A&#xA;4P1/hA31qEi4UslJmI2IHGoHEmhLbE7KTjYX8tPbfn5pZqOn6jYQwSyzFkuC4TiZAQYzxIYOq0Pt&#xA;1whqnCUQCTzZH+W+r3/6VbT3kaS1kjZ+DEniy03FelemRkHK0OSXFw9GF/8AOXf/ACjmgf8AMZL/&#xA;AMmszez/AKi5Os5BhX5cvTT7dP5rVD91P65PVj73US5s0zCYuxV2KuxVfBH6kyR7/EwG3XfwzH1W&#xA;bwsUp/zRbfpsXiZIw5WUyTS7Z5rhKSoIo0defGpLFwegO3wZyX+iPUd0Pkf+KeoPs/goeqXzH/Eo&#xA;e4so47SOZVlDMqMxfjw+IA7U3zZdl9s5M+bgmI8jyv8AWXA7T7Ix4MfHGR2PX+wPQvyv/wCOBcf8&#xA;xb/8m4838ubjaD6D7/1MvyLnOxV2KuxV2KuxV2KuxV2KoPVdUg061M8u/ZErSp+fYeJzC12tjp8f&#xA;FL4DvbcOE5JUHnuoec9YvJCbZvThr8JqUUj2C/EfpOcNq+28+Q/UR5R2d7i0OOI35pdqF1qDyenq&#xA;kPrMgoaFxIoO+3In9eYWbPMyrJfEO9uxwiBcClN5bwQ+lKk0rW05ISQKGCkCvF/iU128MRGxbfGR&#xA;O1bpVNptvJ6/+lN++ZW3j/lr1+L3y6Oaq8m4TPct1nS0t/J+o64twZYtCSNpYCnEuJ5Ag4mpApTN&#xA;v2P2edXOQieHl+n9ThaztEacWY3bOP8AnHzXV8w+XdS1lY2gBvBZ+izc/wC4iWTlyoOv1ilKds6b&#xA;RdjHQmQMuLirpXK3QZ+0BqQCI8NX+hneveU9J1p0kug8cyDiJoiFYr4GoYH7s2INOvzaaOTmlP8A&#xA;yq/QP+Wi7/4OP/qnh4i0fkId5/Hwd/yq/QP+Wi7/AODj/wCqePEV/IQ7z+Pg7/lV+gf8tF3/AMHH&#xA;/wBU8eIr+Qh3n8fB3/Kr9A/5aLv/AIOP/qnjxFfyEO8/j4JxoPlfStE5m0V2lkFHmlIZ+PXjsFAH&#xA;yGAm2/Dp44+Txn/nLv8A5RzQP+YyX/k1mf2f9RatZyDA/ID8YNOH89uF/wCEr/DLdSNi6eXNneYC&#xA;GiAQQeh+jFUu/QNj4yf8Gct8aSu/QNj4yf8ABnHxpKjtPtbe04otTHyq3P4+ux2PX5Zh66Es2KUR&#xA;zMacnSZRjyxmeQKcrc20LvLBdRhpBGjqICo4oSO3grHOH/kXVHnD/ZR/W9j/AC1pTzl/uv1KF61h&#xA;6QFuYi5oD6cPpn58v4Ztex+zM+LNx5BQA7wfudZ2t2piy4eCBJJPn+l6D+V//HAuP+Yt/wDk3HnT&#xA;S5uv0H0H3/qZfkXOdirsVdirsVdirsVYr59l8wwwWs2k8xEnqG7ZG40FF4k7j/KzQ9u+OIxliJAF&#xA;8VGu6v0ux7PGIkifPamBSebfMsbcZL5kYitGloafS2csNbqT/HP/AExdyNJiP8P2Kk+p6lfWEQvb&#xA;lpzPKQtW5ARqoJANT1K5jarUZJj1yJI7zaIYoRkeEUnnk0WRvpo5WSO4eIrZyOAVWQ7bA7cvDMv2&#xA;f8M5ZCRAmY+knofj1cXXcXCCOV7o7zobpB6dxaqytIGt78UrxCAGMgDxqdzmb7RHIPTOA+r0z+H0&#xA;/Pfdp0HCdwem4/Sw4IxS8gSnxwtMgIBAkTYGh232zn9Ob5uzPQ+aRwy6i+oen6UbRceXEKnTiN9j&#xA;XrmXKMeC+rkERrmrWj6vLZXlheW6SWNzxE1tIi+nIFJI5L0ahod8ujqZ4f7qRj7jTTnw4p/UL+15&#xA;55Q/NLzl+Ui3ugTaTBLb3kv16GCZ90LgR8lkiZ+QZYgKHpT556tp54dbAZIS4q2J8/jXe8JPj08j&#xA;GQrqyL/obvzH/wBS/Z/8jZct/k+Pex/OHud/0N35j/6l+z/5Gy4/yfHvX84e5pv+cvvMC/a0GzH/&#xA;AD1lxOgj3r+bPc5f+cvvMLCq6DZn/nrLj+Qj3r+bPc3/ANDd+Y/+pfs/+RsuP8nx71/OHud/0N35&#xA;j/6l+z/5Gy4/yfHvX84e5gv5pfnNrX5gwWNteWUFjbWLPIqQlmZncBaszdgBsBmRg0wx3TVlzGbD&#xA;ra08xMsZtYbtlanpGJZSCD048R+rLiY9XHsIz9Feev8Alj1T/kXcf0yHHj74/Yth36K89f8ALHqn&#xA;/Iu4/pjx4++P2LYd+ivPX/LHqn/Iu4/pjx4++P2LYd+ivPX/ACx6p/yLuP6Y8ePvj9i2Hforz1/y&#xA;x6p/yLuP6Y8ePvj9i2Hforz1/wAseqf8i7j+mPHj74/Yth36K89f8seqf8i7j+mPHj74/Yth9Qf8&#xA;4vW+rQeQNQTVI54rg6rMVW5V1fh9Wt6EB96Vrms1piZiu52OjrhPvewZhuW7FXYq7FXYq7FXYq8/&#xA;81+eCs+oaM9v+6o0DON2oy9QeQHfwzku1O2JiU8PCOHl5u60mg2jkvfm81vtPsZ29X1pV4rSnpqe&#xA;lT/PnP4svDtTu4ykE00aaKfRY44CzS2jGTg1AxSpDUAJ8cr1ELJacgInZ6p/o50aZJ0vnaP1EBtr&#xA;leTBHB/aVetchoo6c8UcxMSR6Zb7H3DnbjZ/EFGO/eGQebtXtvqj6YJDPOJFcsVosShBsCep/rm+&#xA;7d18PDOC+KXEDy+nbl5/tcHRYDxcfIV82FSSxx2l1dSMUSSNreAgVLMwJYruOlM5/TxIdrVkD4sZ&#xA;t5bFVe8rKeKrF6fFfbetf4Zmzjfp+LlEHk3rGrW9j5du9WhR5JLaL1RC9FU/GFpyFfHwzI7N7PGp&#xA;1Awk8N3v8LcHXamWDGZ1dPDPNfmabzFqa30sK2/CJYUjUlvhUs1STTerntnqPZHZcdFiOMS4rld/&#xA;IfoeJ1+tOonxkVtSS5tHCdiqDuK+qa/RlcubIN21fVFOlDXDHmpReTYuxV2KvrH8ufI/lW58l6Be&#xA;3FlyuJLOCWST1ZhVioJNA9PwzS588hMi9rdti0OKUASNyO8sp87+UtG0vSUu7FGik9VUYFywIYE/&#xA;tV6UyiJdfq9NCEbDBcm65fDE0s0cSkK0jBQWIVQWNNydgMUgWaZB/gTU/wDlssv+R/8AZkeJyvyk&#xA;u+Pzd/gTU/8Alssv+R/9mPEv5SXfH5oK/wDLN5ZTW0UlxbO10/BDHMpCmoFXrSg364ba54DEgWN/&#xA;NU1HynfWFo91Lc2siJSqRzBnNTTYECuIKZ6cxF2PmzX8r/8AjgXH/MW//JuPIS5ufoPoPv8A1Mvy&#xA;LnOxV2KvLp/+cl/yehnkiOrySGNipeO1uGQ0NKqwTce+ZA0uTuafzEO9T/6Gd/J7/q6zf9Ilx/zR&#xA;h/KZO5fzEHf9DO/k9/1dZv8ApEuP+aMfymTuX8xB3/Qzv5Pf9XWb/pEuP+aMfymTuX8xBinnb8+P&#xA;yw1RrWXTNSpInMXLSWcwZqheG5iNaUOc9252LqM3CcUQTve4HdXN2fZ/aGGFicq7uf6GIXv5ueUn&#xA;t2WLVF5mlKW0o2rvv6WaTH7Oa698e39aP/FO0j2tpL+r7JfqUrH83PLFrblk1JRcK1Y/9Gl+yaVF&#xA;RF0Pzyc/ZzWGX0en+tH/AIpM+1tIf4vsl+pNrf8AOH8uZ1Mk2oSWNwftiOGd42PjT0zlGT2W1hP0&#xA;X/nR/wCKaT2rpxynY90v1L5vzc/LOMVbV5r09o1t541P+tWNcjD2W1n+p/7KP/FIHa+A/wAVfCX6&#xA;krvvzh8r3N+jDUVW1jBEUYt5SqgrTvHXMiPs5rBD+73/AK0f+KbYdq6QD69/dL9Syy/NbyYlqI5d&#xA;QjqSSym0kNd9v91YMns7ruLaH+yj/wAUyl2vpb+v7JfqRI/NzySIzENSQRsOLJ9Ul4lT1BHo9MhH&#xA;2d7QBsQ3/rR/4prl2ppDzlfwl+p4rrQ0q31KdNPv47+zLsYbiOOWKqk7VSRUKmnYVHvnqmKR4RfN&#xA;4qY3NckD68X82WcQYU714v5seILSx2t3+0d/HfASE7uR7dB8J+nfCCF3X+vF/NjxBFO9eL+bHiC0&#xA;r2RsJZwtzdLbQ1+Nyruaf5IVW3+eAyUgvcNN/wCcgrHTtPttPtGs0tbSJIIE+r3RokahVH2vAZr5&#xA;aQE2bcmOuzAUBH8fFONW/wCcg/Lms2UVte6nGiKQ7JHbXI+MCm5KN0qco/KyB2Dj5cuTIKKT/wDK&#xA;1PIX/V0/5IXH/VPD+Xn3OP4cnf8AK1PIX/V0/wCSFx/1Tx/Lz7l8OTv+VqeQv+rp/wAkLj/qnj+X&#xA;n3L4cnf8rU8hf9XT/khcf9U8fy8+5fDk7/lankL/AKun/JC4/wCqeP5efcvhycPzU8hE/wDHUp7+&#xA;hc/9U8fy8+5fCkz7yt+f/wCT2iaSto2sTSTOxlmZbS5482AFFqnQBQMidLkPR2mnlDHGrTf/AKGd&#xA;/J7/AKus3/SJcf8ANGD8pk7m/wDMQd/0M7+T3/V1m/6RLj/mjH8pk7l/MQVIP+cl/wAnpp44hq8k&#xA;ZkYKHktbhUFTSrMU2HvgOlydy/mId7wzWP8AoVX9J3Po/p70/Ubj9T4fV+v+6/W/ecfCuZkfGro4&#xA;x8K+qD/6xc/7+b/p3w/vv6KP3fm7/rFz/v5v+nfH99/RX935u/6xc/7+b/p3x/ff0V/d+bv+sXP+&#xA;/m/6d8f339Ff3fm7/rFz/v5v+nfH99/RX935u/6xc/7+b/p3x/ff0V/d+bv+sXP+/m/6d8f339Ff&#xA;3fm7/rFz/v5v+nfH99/RX935u/6xc/7+b/p3x/ff0V/d+bv+sXP+/m/6d8f339Ff3fm7/rFz/v5v&#xA;+nfH99/RX935u/6xc/7+b/p3x/ff0V/d+bv+sXP+/m/6d8f339Ff3fm7/rFz/v5v+nfH99/RX935&#xA;u/6xc/7+b/p3x/ff0V/d+bv+sXP+/m/6d8f339Ff3fm7/rFz/v5v+nfH99/RX935u/6xc/7+b/p3&#xA;x/ff0V/d+bv+sXP+/m/6d8f339Ff3fm7/rFz/v5v+nfH99/RX935u/6xc/7+b/p3x/ff0V/d+bv+&#xA;sXP+/m/6d8f339Ff3fm7/rFz/v5v+nfH99/RX935u/6xc/7+b/p3x/ff0V/d+bv+sXP+/m/6d8f3&#xA;39Ff3fm7/rFz/v5v+nfH99/RX935u/6xc/7+b/p3x/ff0V/d+bv+sXP+/m/6d8f339Ff3fm7/rFz&#xA;/v5v+nfH99/RX935u/6xc/7+b/p3x/ff0V/d+aM0f/oVb9KWvrfp70vUXl9c9P6v/wA9fR/ecfHj&#xA;gl41dEjwr6v/2Q==</xmpGImg:image>
               </rdf:li>
            </rdf:Alt>
         </xmp:Thumbnails>
      </rdf:Description>
      <rdf:Description rdf:about=""
            xmlns:xmpMM="http://ns.adobe.com/xap/1.0/mm/"
            xmlns:stRef="http://ns.adobe.com/xap/1.0/sType/ResourceRef#"
            xmlns:stEvt="http://ns.adobe.com/xap/1.0/sType/ResourceEvent#">
         <xmpMM:InstanceID>xmp.iid:6D67592A5644EB11B3D2F3636AE62F95</xmpMM:InstanceID>
         <xmpMM:DocumentID>xmp.did:6D67592A5644EB11B3D2F3636AE62F95</xmpMM:DocumentID>
         <xmpMM:OriginalDocumentID>uuid:5D20892493BFDB11914A8590D31508C8</xmpMM:OriginalDocumentID>
         <xmpMM:RenditionClass>proof:pdf</xmpMM:RenditionClass>
         <xmpMM:DerivedFrom rdf:parseType="Resource">
            <stRef:instanceID>uuid:cf69bde6-c06a-4b21-875e-cfb228e17726</stRef:instanceID>
            <stRef:documentID>xmp.did:7E7552327458EA11B09DD0BD1634EB9F</stRef:documentID>
            <stRef:originalDocumentID>uuid:5D20892493BFDB11914A8590D31508C8</stRef:originalDocumentID>
            <stRef:renditionClass>proof:pdf</stRef:renditionClass>
         </xmpMM:DerivedFrom>
         <xmpMM:History>
            <rdf:Seq>
               <rdf:li rdf:parseType="Resource">
                  <stEvt:action>saved</stEvt:action>
                  <stEvt:instanceID>xmp.iid:f185a7aa-28e4-bb47-b2f7-79ddb425fe48</stEvt:instanceID>
                  <stEvt:when>2018-07-22T18:16:35+02:00</stEvt:when>
                  <stEvt:softwareAgent>Adobe Illustrator CC 2015 (Windows)</stEvt:softwareAgent>
                  <stEvt:changed>/</stEvt:changed>
               </rdf:li>
               <rdf:li rdf:parseType="Resource">
                  <stEvt:action>saved</stEvt:action>
                  <stEvt:instanceID>xmp.iid:BC283D2EBAF0E91188A5BF3792139B91</stEvt:instanceID>
                  <stEvt:when>2019-10-17T16:51:27+07:00</stEvt:when>
                  <stEvt:softwareAgent>Adobe Illustrator CS6 (Windows)</stEvt:softwareAgent>
                  <stEvt:changed>/</stEvt:changed>
               </rdf:li>
               <rdf:li rdf:parseType="Resource">
                  <stEvt:action>converted</stEvt:action>
                  <stEvt:parameters>from application/postscript to application/vnd.adobe.illustrator</stEvt:parameters>
               </rdf:li>
               <rdf:li rdf:parseType="Resource">
                  <stEvt:action>saved</stEvt:action>
                  <stEvt:instanceID>xmp.iid:BF283D2EBAF0E91188A5BF3792139B91</stEvt:instanceID>
                  <stEvt:when>2019-10-17T16:53:20+07:00</stEvt:when>
                  <stEvt:softwareAgent>Adobe Illustrator CS6 (Windows)</stEvt:softwareAgent>
                  <stEvt:changed>/</stEvt:changed>
               </rdf:li>
               <rdf:li rdf:parseType="Resource">
                  <stEvt:action>saved</stEvt:action>
                  <stEvt:instanceID>xmp.iid:6D67592A5644EB11B3D2F3636AE62F95</stEvt:instanceID>
                  <stEvt:when>2020-12-22T19:21:54+05:30</stEvt:when>
                  <stEvt:softwareAgent>Adobe Illustrator CS6 (Windows)</stEvt:softwareAgent>
                  <stEvt:changed>/</stEvt:changed>
               </rdf:li>
            </rdf:Seq>
         </xmpMM:History>
      </rdf:Description>
      <rdf:Description rdf:about=""
            xmlns:illustrator="http://ns.adobe.com/illustrator/1.0/">
         <illustrator:StartupProfile>Print</illustrator:StartupProfile>
      </rdf:Description>
      <rdf:Description rdf:about=""
            xmlns:xmpTPg="http://ns.adobe.com/xap/1.0/t/pg/"
            xmlns:stDim="http://ns.adobe.com/xap/1.0/sType/Dimensions#"
            xmlns:stFnt="http://ns.adobe.com/xap/1.0/sType/Font#"
            xmlns:xmpG="http://ns.adobe.com/xap/1.0/g/">
         <xmpTPg:HasVisibleOverprint>False</xmpTPg:HasVisibleOverprint>
         <xmpTPg:HasVisibleTransparency>False</xmpTPg:HasVisibleTransparency>
         <xmpTPg:NPages>1</xmpTPg:NPages>
         <xmpTPg:MaxPageSize rdf:parseType="Resource">
            <stDim:w>664.466797</stDim:w>
            <stDim:h>406.479492</stDim:h>
            <stDim:unit>Pixels</stDim:unit>
         </xmpTPg:MaxPageSize>
         <xmpTPg:Fonts>
            <rdf:Bag>
               <rdf:li rdf:parseType="Resource">
                  <stFnt:fontName>OpenSans-Extrabold</stFnt:fontName>
                  <stFnt:fontFamily>OpenSans Extrabold</stFnt:fontFamily>
                  <stFnt:fontFace>Extrabold</stFnt:fontFace>
                  <stFnt:fontType>Unknown</stFnt:fontType>
                  <stFnt:versionString>Version 2.102;PS 2.000;hotconv 1.0.67;makeotf.lib2.5.33168</stFnt:versionString>
                  <stFnt:composite>False</stFnt:composite>
                  <stFnt:fontFileName>MyriadPro-Regular.otf</stFnt:fontFileName>
               </rdf:li>
            </rdf:Bag>
         </xmpTPg:Fonts>
         <xmpTPg:PlateNames>
            <rdf:Seq>
               <rdf:li>Cyan</rdf:li>
               <rdf:li>Magenta</rdf:li>
               <rdf:li>Yellow</rdf:li>
               <rdf:li>Black</rdf:li>
            </rdf:Seq>
         </xmpTPg:PlateNames>
         <xmpTPg:SwatchGroups>
            <rdf:Seq>
               <rdf:li rdf:parseType="Resource">
                  <xmpG:groupName>Default Swatch Group</xmpG:groupName>
                  <xmpG:groupType>0</xmpG:groupType>
                  <xmpG:Colorants>
                     <rdf:Seq>
                        <rdf:li rdf:parseType="Resource">
                           <xmpG:swatchName>R=31 G=25 B=69 1</xmpG:swatchName>
                           <xmpG:mode>RGB</xmpG:mode>
                           <xmpG:type>PROCESS</xmpG:type>
                           <xmpG:red>31</xmpG:red>
                           <xmpG:green>25</xmpG:green>
                           <xmpG:blue>69</xmpG:blue>
                        </rdf:li>
                        <rdf:li rdf:parseType="Resource">
                           <xmpG:swatchName>R=38 G=71 B=0 1</xmpG:swatchName>
                           <xmpG:mode>RGB</xmpG:mode>
                           <xmpG:type>PROCESS</xmpG:type>
                           <xmpG:red>38</xmpG:red>
                           <xmpG:green>71</xmpG:green>
                           <xmpG:blue>0</xmpG:blue>
                        </rdf:li>
                        <rdf:li rdf:parseType="Resource">
                           <xmpG:swatchName>R=128 G=153 B=35 1</xmpG:swatchName>
                           <xmpG:mode>RGB</xmpG:mode>
                           <xmpG:type>PROCESS</xmpG:type>
                           <xmpG:red>128</xmpG:red>
                           <xmpG:green>153</xmpG:green>
                           <xmpG:blue>35</xmpG:blue>
                        </rdf:li>
                     </rdf:Seq>
                  </xmpG:Colorants>
               </rdf:li>
            </rdf:Seq>
         </xmpTPg:SwatchGroups>
      </rdf:Description>
      <rdf:Description rdf:about=""
            xmlns:pdf="http://ns.adobe.com/pdf/1.3/">
         <pdf:Producer>Adobe PDF library 10.01</pdf:Producer>
      </rdf:Description>
      <rdf:Description rdf:about=""
            xmlns:pdfx="http://ns.adobe.com/pdfx/1.3/">
         <pdfx:CreatorVersion>21.0.0</pdfx:CreatorVersion>
      </rdf:Description>
   </rdf:RDF>
</x:xmpmeta>
                                                                                                    
                                                                                                    
                                                                                                    
                                                                                                    
                                                                                                    
                                                                                                    
                                                                                                    
                                                                                                    
                                                                                                    
                                                                                                    
                                                                                                    
                                                                                                    
                                                                                                    
                                                                                                    
                                                                                                    
                                                                                                    
                                                                                                    
                                                                                                    
                                                                                                    
                                                                                                    
                           
<?xpacket end="w"?>
	</metadata>
<g id="BACKGROUND">
</g>
<g id="OBJECTS">
	<path fill-rule="evenodd" clip-rule="evenodd" fill="#00214C" d="M28.811,381.375h616.441c3.184,0,5.787,2.604,5.787,5.787l0,0
		c0,3.183-2.604,5.788-5.787,5.788H28.811c-3.185,0-5.787-2.605-5.787-5.788l0,0C23.023,383.979,25.626,381.375,28.811,381.375z"/>
	<g>
		<path fill-rule="evenodd" clip-rule="evenodd" fill="#73B5A9" d="M566.334,263.089H411.313c-7.323,0-13.315,5.992-13.315,13.315
			v91.656c0,7.323,5.992,13.314,13.315,13.314h155.021c7.323,0,13.315-5.991,13.315-13.314v-91.656
			C579.649,269.081,573.657,263.089,566.334,263.089z"/>
		<path fill-rule="evenodd" clip-rule="evenodd" fill="#448299" d="M422.438,263.089h-11.125c-7.323,0-13.315,5.991-13.315,13.315
			v91.656c0,7.323,5.992,13.314,13.315,13.314h25.521L422.438,263.089z"/>
		<rect x="397.997" y="329.171" fill-rule="evenodd" clip-rule="evenodd" fill="#082E61" width="181.652" height="15.771"/>
		<path fill-rule="evenodd" clip-rule="evenodd" fill="#E4AA4A" d="M460.883,272.352h-10.629c-1.415,0-2.571,1.156-2.571,2.571
			v10.456c0,1.415,1.156,2.571,2.571,2.571h10.629c1.414,0,2.571-1.156,2.571-2.571v-10.456
			C463.454,273.508,462.297,272.352,460.883,272.352z"/>
		<path fill-rule="evenodd" clip-rule="evenodd" fill="#FFFFFF" d="M438.77,272.352h-26.913c-1.415,0-2.572,1.156-2.572,2.571
			v10.456c0,1.415,1.157,2.571,2.572,2.571h26.913c1.415,0,2.571-1.156,2.571-2.571v-10.456
			C441.341,273.508,440.185,272.352,438.77,272.352z"/>
		<path fill-rule="evenodd" clip-rule="evenodd" fill="#F0D7DD" d="M423.564,272.352h-11.711c-1.412,0-2.569,1.156-2.569,2.571
			v10.456c0,1.415,1.157,2.571,2.569,2.571h13.608L423.564,272.352z"/>
		<path fill-rule="evenodd" clip-rule="evenodd" fill="#FFFFFF" d="M566.135,272.352h-27.6c-1.226,0-2.228,1.002-2.228,2.228l0,0
			c0,1.225,1.002,2.228,2.228,2.228h27.6c1.226,0,2.228-1.003,2.228-2.228l0,0C568.362,273.354,567.36,272.352,566.135,272.352z"/>
		<path fill-rule="evenodd" clip-rule="evenodd" fill="#FFFFFF" d="M566.135,283.496h-14.028c-1.226,0-2.228,1.002-2.228,2.228l0,0
			c0,1.226,1.002,2.227,2.228,2.227h14.028c1.226,0,2.228-1.001,2.228-2.227l0,0C568.362,284.498,567.36,283.496,566.135,283.496z"
			/>
		<path fill-rule="evenodd" clip-rule="evenodd" fill="#FFFFFF" d="M505.651,283.496h36.686c1.226,0,2.227,1.002,2.227,2.228l0,0
			c0,1.226-1.001,2.227-2.227,2.227h-36.686c-1.226,0-2.228-1.001-2.228-2.227l0,0C503.424,284.498,504.426,283.496,505.651,283.496
			z"/>
		<path fill-rule="evenodd" clip-rule="evenodd" fill="#448299" d="M475.31,309.38h44.059c1.226,0,2.227,1.003,2.227,2.229l0,0
			c0,1.226-1.001,2.228-2.227,2.228H475.31c-1.226,0-2.229-1.002-2.229-2.228l0,0C473.08,310.383,474.084,309.38,475.31,309.38z"/>
		<path fill-rule="evenodd" clip-rule="evenodd" fill="#FFFFFF" d="M444.36,353.169h-31.756c-1.826,0-3.32,1.495-3.32,3.32v13.508
			c0,1.827,1.494,3.322,3.32,3.322h31.756c1.829,0,3.322-1.495,3.322-3.322v-13.508C447.683,354.664,446.189,353.169,444.36,353.169
			z"/>
		<path fill-rule="evenodd" clip-rule="evenodd" fill="#F0D7DD" d="M433.4,353.169h-20.796c-1.826,0-3.32,1.495-3.32,3.322v13.506
			c0,1.827,1.494,3.322,3.32,3.322h23.249L433.4,353.169z"/>
		<path fill-rule="evenodd" clip-rule="evenodd" fill="#FFFFFF" d="M566.135,361.017h-14.028c-1.226,0-2.228,1.002-2.228,2.227
			v0.001c0,1.225,1.002,2.228,2.228,2.228h14.028c1.226,0,2.228-1.003,2.228-2.228v-0.001
			C568.362,362.019,567.36,361.017,566.135,361.017z"/>
		<path fill-rule="evenodd" clip-rule="evenodd" fill="#FFFFFF" d="M493.825,361.017h48.512c1.226,0,2.227,1.002,2.227,2.227v0.001
			c0,1.225-1.001,2.228-2.227,2.228h-48.512c-1.226,0-2.229-1.003-2.229-2.228v-0.001
			C491.596,362.019,492.6,361.017,493.825,361.017z"/>
		<path fill-rule="evenodd" clip-rule="evenodd" fill="#F0CA46" d="M560.362,322.837h-24.271c-3.047,0-5.54-2.492-5.54-5.54V301.6
			c0-3.047,2.493-5.541,5.54-5.541h24.271c3.049,0,5.541,2.494,5.541,5.541v15.697C565.903,320.345,563.411,322.837,560.362,322.837
			z"/>
		<path fill-rule="evenodd" clip-rule="evenodd" fill="#CA6D1E" d="M549.805,322.837h-1.095v-6.254h-6.572h-0.015h-0.013h-11.559
			v-1.097h11.022v-5.694h-3.02c-0.303,0-0.547-0.246-0.547-0.548c0-0.303,0.244-0.549,0.547-0.549h3.02v-5.283h-6.688
			c-0.303,0-0.547-0.245-0.547-0.549c0-0.302,0.244-0.548,0.547-0.548h6.688v-6.257h1.098v6.791v0.014v0.015v6.353v0.014v0.015
			v6.228h6.572h0.027h7.087c0.303,0,0.549,0.245,0.549,0.548s-0.246,0.549-0.549,0.549h-6.554V322.837L549.805,322.837z
			 M530.552,309.792h4.914c0.303,0,0.549-0.246,0.549-0.548c0-0.303-0.246-0.549-0.549-0.549h-4.914V309.792L530.552,309.792z
			 M530.552,303.412h1.248c0.303,0,0.546-0.245,0.546-0.549c0-0.302-0.243-0.548-0.546-0.548h-1.248V303.412L530.552,303.412z
			 M552.689,296.059v6.791v0.014v0.015v6.353v0.014c0,0.302,0.243,0.548,0.546,0.548h0.015h12.653v-1.097h-12.119v-5.283h1.509
			c0.303,0,0.549-0.245,0.549-0.549c0-0.302-0.246-0.548-0.549-0.548h-1.509v-6.257H552.689L552.689,296.059z M565.903,302.315
			v1.097h-7.522c-0.303,0-0.549-0.245-0.549-0.549c0-0.302,0.246-0.548,0.549-0.548H565.903L565.903,302.315z M565.903,315.486
			v1.097h-6.457c-0.303,0-0.549-0.246-0.549-0.549s0.246-0.548,0.549-0.548H565.903z"/>
	</g>
	<g>
		<path fill-rule="evenodd" clip-rule="evenodd" fill="#082E61" d="M272.9,42.459h127.171c10.183,0,18.513,8.331,18.513,18.513
			v302.636c0,10.183-8.33,18.513-18.513,18.513H272.9c-10.182,0-18.512-8.33-18.512-18.513V60.972
			C254.389,50.79,262.719,42.459,272.9,42.459z"/>
		<path fill-rule="evenodd" clip-rule="evenodd" fill="#FFFFFF" d="M269.882,88.488h133.209c1.88,0,3.421,1.54,3.421,3.42V332.67
			c0,1.882-1.541,3.421-3.421,3.421H269.882c-1.881,0-3.419-1.539-3.419-3.421V91.908C266.463,90.027,268.001,88.488,269.882,88.488
			z"/>
		<circle fill-rule="evenodd" clip-rule="evenodd" fill="#00214C" cx="336.487" cy="358.142" r="14.89"/>
		<path fill-rule="evenodd" clip-rule="evenodd" fill="#73B5A9" d="M324.994,72.213c-1.138,0-2.062-0.923-2.062-2.061
			c0-1.138,0.924-2.061,2.062-2.061h33.913c1.137,0,2.06,0.923,2.06,2.061c0,1.138-0.923,2.061-2.06,2.061H324.994L324.994,72.213z
			 M314.066,72.213c-1.138,0-2.061-0.923-2.061-2.061c0-1.138,0.923-2.061,2.061-2.061h2.514c1.14,0,2.063,0.923,2.063,2.061
			c0,1.138-0.923,2.061-2.063,2.061H314.066z"/>
		<g>
			<path fill-rule="evenodd" clip-rule="evenodd" fill="#CB516A" d="M381.522,218.009h-90.07c0,0,4.411,32.657,5.623,43.397
				c1.212,10.742,9.28,10.372,9.28,10.372h30.132h30.132c0,0,8.066,0.37,9.28-10.372
				C377.11,250.666,381.522,218.009,381.522,218.009z"/>
			<path fill-rule="evenodd" clip-rule="evenodd" fill="#082E61" d="M291.777,220.422l88.61,6.05
				c0.669-5.018,1.135-8.463,1.135-8.463h-90.07L291.777,220.422z"/>
			<path fill-rule="evenodd" clip-rule="evenodd" fill="#CB516A" d="M291.452,201.34h90.07c2.251,0,4.095,1.843,4.095,4.095v9.553
				c0,2.251-1.844,4.094-4.095,4.094h-90.07c-2.253,0-4.094-1.843-4.094-4.094v-9.553
				C287.358,203.183,289.199,201.34,291.452,201.34z"/>
			<g>
				<path fill-rule="evenodd" clip-rule="evenodd" fill="#082E61" d="M297.456,213.213c1.654,0,3.003-1.35,3.003-3.004
					c0-1.653-1.349-3.002-3.003-3.002c-1.653,0-3.002,1.349-3.002,3.002C294.454,211.863,295.803,213.213,297.456,213.213z"/>
				<path fill-rule="evenodd" clip-rule="evenodd" fill="#082E61" d="M375.518,213.213c1.654,0,3.002-1.35,3.002-3.004
					c0-1.653-1.348-3.002-3.002-3.002c-1.653,0-3.002,1.349-3.002,3.002C372.516,211.863,373.864,213.213,375.518,213.213z"/>
			</g>
			<path fill-rule="evenodd" clip-rule="evenodd" fill="#082E61" d="M376.361,210.012c0,0.466-0.379,0.844-0.844,0.844
				c-0.468,0-0.844-0.378-0.844-0.844v-25.656c0-4.121-1.688-7.868-4.405-10.584c-2.714-2.717-6.462-4.403-10.583-4.403h-46.397
				c-4.121,0-7.868,1.687-10.585,4.403c-2.716,2.716-4.402,6.463-4.402,10.584v25.656c0,0.466-0.379,0.844-0.845,0.844
				s-0.844-0.378-0.844-0.844v-25.656c0-4.587,1.876-8.755,4.898-11.777c3.021-3.021,7.19-4.897,11.777-4.897h46.397
				c4.586,0,8.758,1.876,11.777,4.897c3.021,3.022,4.898,7.19,4.898,11.777V210.012z"/>
			<path fill-rule="evenodd" clip-rule="evenodd" fill="#FFFFFF" d="M335.244,253.847v-7.25c-2.255-0.645-3.905-1.62-4.952-2.928
				c-1.054-1.313-1.58-2.899-1.58-4.77c0-1.894,0.597-3.485,1.787-4.769c1.189-1.29,2.77-2.029,4.745-2.226v-1.703h2.521v1.703
				c1.845,0.22,3.311,0.846,4.406,1.882c1.09,1.036,1.789,2.421,2.089,4.154l-4.402,0.567c-0.271-1.36-0.97-2.282-2.093-2.769v6.764
				c2.787,0.745,4.685,1.721,5.69,2.911c1.012,1.194,1.516,2.728,1.516,4.598c0,2.088-0.632,3.845-1.904,5.277
				c-1.272,1.432-3.036,2.319-5.302,2.675v3.23h-2.521V258c-1.988-0.243-3.604-0.977-4.852-2.213
				c-1.249-1.236-2.042-2.987-2.391-5.241l4.509-0.533c0.183,0.923,0.532,1.715,1.042,2.383
				C334.061,253.065,334.623,253.544,335.244,253.847L335.244,253.847z M335.244,235.669c-0.681,0.243-1.213,0.64-1.609,1.195
				c-0.397,0.557-0.592,1.166-0.592,1.835c0,0.609,0.177,1.178,0.539,1.704c0.36,0.521,0.917,0.946,1.662,1.266V235.669
				L335.244,235.669z M337.766,254.131c0.867-0.189,1.578-0.604,2.122-1.243c0.552-0.64,0.822-1.392,0.822-2.26
				c0-0.77-0.229-1.438-0.691-1.994c-0.455-0.563-1.206-0.988-2.253-1.29V254.131z"/>
		</g>
		<path fill-rule="evenodd" clip-rule="evenodd" fill="#73B5A9" d="M339.066,110.257h53.105c0.928,0,1.688,0.759,1.688,1.687v0.001
			c0,0.928-0.761,1.688-1.688,1.688h-53.105c-0.927,0-1.687-0.759-1.687-1.688v-0.001
			C337.38,111.016,338.14,110.257,339.066,110.257L339.066,110.257z M350.75,134.367h1.388c0.928,0,1.686,0.759,1.686,1.687v0.001
			c0,0.927-0.758,1.687-1.686,1.687h-1.388c-0.928,0-1.688-0.759-1.688-1.687v-0.001
			C349.062,135.126,349.822,134.367,350.75,134.367L350.75,134.367z M359.53,134.367h32.642c0.928,0,1.688,0.759,1.688,1.687v0.001
			c0,0.927-0.761,1.687-1.688,1.687H359.53c-0.928,0-1.688-0.759-1.688-1.687v-0.001
			C357.842,135.126,358.603,134.367,359.53,134.367L359.53,134.367z M339.066,121.568h53.105c0.928,0,1.688,0.758,1.688,1.687v0.001
			c0,0.928-0.761,1.688-1.688,1.688h-53.105c-0.927,0-1.687-0.759-1.687-1.688v-0.001
			C337.38,122.326,338.14,121.568,339.066,121.568z"/>
		<path fill-rule="evenodd" clip-rule="evenodd" fill="#73B5A9" d="M296.38,289.416h80.213c7.205,0,13.097,5.894,13.097,13.098l0,0
			c0,7.204-5.892,13.098-13.097,13.098H296.38c-7.204,0-13.098-5.894-13.098-13.098l0,0
			C283.282,295.31,289.176,289.416,296.38,289.416z"/>
		<text transform="matrix(1 0 0 1 294.6553 307.1279)"><tspan x="0" y="0" fill="#FFFFFF" font-family="'OpenSans-Extrabold'" font-size="11.1604">G</tspan><tspan x="7.21" y="0" fill="#FFFFFF" font-family="'OpenSans-Extrabold'" font-size="11.1604">ET CASHBACK</tspan></text>
	</g>
	<g>
		<g>
			<path fill-rule="evenodd" clip-rule="evenodd" fill="#DC9418" d="M191.188,371.098v7.985c0,1.262-1.031,2.292-2.292,2.292
				h-74.808c-1.261,0-2.291-1.03-2.291-2.292v-7.985c0-1.261,1.03-2.292,2.291-2.292h74.808
				C190.156,368.806,191.188,369.837,191.188,371.098z"/>
			<path fill-rule="evenodd" clip-rule="evenodd" fill="#F0CA46" d="M191.188,371.097v0.35h-79.394v-0.35
				c0-1.26,0.913-2.291,2.03-2.291h75.335C190.275,368.806,191.188,369.837,191.188,371.097z"/>
			<path fill-rule="evenodd" clip-rule="evenodd" fill="#CA6D1E" d="M182.839,381.375h-8.135v-9.929h8.135V381.375L182.839,381.375z
				 M168.981,381.375h-12.265v-9.929h12.265V381.375L168.981,381.375z M147.724,381.375h-12.263v-9.929h12.263V381.375z"/>
		</g>
		<g>
			<path fill-rule="evenodd" clip-rule="evenodd" fill="#DC9418" d="M105.812,358.528v7.985c0,1.261,1.031,2.292,2.291,2.292h74.81
				c1.26,0,2.291-1.031,2.291-2.292v-7.985c0-1.261-1.031-2.292-2.291-2.292h-74.81
				C106.843,356.236,105.812,357.268,105.812,358.528z"/>
			<path fill-rule="evenodd" clip-rule="evenodd" fill="#F0CA46" d="M105.811,358.527v0.348h79.394v-0.348
				c0-1.26-0.913-2.291-2.03-2.291h-75.333C106.725,356.236,105.811,357.268,105.811,358.527z"/>
			<path fill-rule="evenodd" clip-rule="evenodd" fill="#CA6D1E" d="M140.079,368.806h5.985v-9.931h-5.985V368.806L140.079,368.806z
				 M150.274,368.806h9.021v-9.931h-9.021V368.806L150.274,368.806z M165.911,368.806h9.022v-9.931h-9.022V368.806z"/>
		</g>
		<g>
			<path fill-rule="evenodd" clip-rule="evenodd" fill="#DC9418" d="M197.737,345.959v7.985c0,1.26-1.031,2.292-2.293,2.292h-74.809
				c-1.26,0-2.291-1.032-2.291-2.292v-7.985c0-1.262,1.031-2.293,2.291-2.293h74.809
				C196.706,343.666,197.737,344.697,197.737,345.959z"/>
			<path fill-rule="evenodd" clip-rule="evenodd" fill="#F0CA46" d="M197.737,345.957v0.349h-79.393v-0.349
				c0-1.26,0.913-2.291,2.028-2.291h75.335C196.824,343.666,197.737,344.697,197.737,345.957z"/>
			<path fill-rule="evenodd" clip-rule="evenodd" fill="#CA6D1E" d="M189.388,356.236h-10.436v-9.931h10.436V356.236
				L189.388,356.236z M171.612,356.236h-15.73v-9.931h15.73V356.236L171.612,356.236z M144.346,356.236h-15.732v-9.931h15.732
				V356.236z"/>
		</g>
		<g>
			<path fill-rule="evenodd" clip-rule="evenodd" fill="#DC9418" d="M111.797,333.389v7.985c0,1.26,1.03,2.292,2.291,2.292h74.809
				c1.261,0,2.292-1.032,2.292-2.292v-7.985c0-1.261-1.031-2.293-2.292-2.293h-74.809
				C112.827,331.096,111.797,332.128,111.797,333.389z"/>
			<path fill-rule="evenodd" clip-rule="evenodd" fill="#F0CA46" d="M111.797,333.388v0.349h79.392v-0.349
				c0-1.26-0.913-2.292-2.03-2.292h-75.333C112.709,331.096,111.797,332.128,111.797,333.388z"/>
			<path fill-rule="evenodd" clip-rule="evenodd" fill="#CA6D1E" d="M146.064,343.666h5.984v-9.93h-5.984V343.666L146.064,343.666z
				 M156.259,343.666h9.021v-9.93h-9.021V343.666L156.259,343.666z M171.897,343.666h9.021v-9.93h-9.021V343.666z"/>
		</g>
		<g>
			<path fill-rule="evenodd" clip-rule="evenodd" fill="#DC9418" d="M258.982,371.098v7.985c0,1.262-1.031,2.292-2.293,2.292
				h-74.808c-1.26,0-2.292-1.03-2.292-2.292v-7.985c0-1.261,1.032-2.292,2.292-2.292h74.808
				C257.951,368.806,258.982,369.837,258.982,371.098z"/>
			<path fill-rule="evenodd" clip-rule="evenodd" fill="#F0CA46" d="M258.983,371.097v0.35H179.59v-0.35
				c0-1.26,0.913-2.291,2.029-2.291h75.334C258.069,368.806,258.983,369.837,258.983,371.097z"/>
			<path fill-rule="evenodd" clip-rule="evenodd" fill="#CA6D1E" d="M224.715,381.375h-5.985v-9.929h5.985V381.375L224.715,381.375z
				 M214.52,381.375h-9.021v-9.929h9.021V381.375L214.52,381.375z M198.881,381.375h-9.021v-9.929h9.021V381.375z"/>
		</g>
		<g>
			<path fill-rule="evenodd" clip-rule="evenodd" fill="#DC9418" d="M173.605,358.528v7.985c0,1.261,1.032,2.292,2.292,2.292h74.808
				c1.262,0,2.292-1.031,2.292-2.292v-7.985c0-1.261-1.03-2.292-2.292-2.292h-74.808
				C174.638,356.236,173.605,357.268,173.605,358.528z"/>
			<path fill-rule="evenodd" clip-rule="evenodd" fill="#F0CA46" d="M173.605,358.527v0.348h79.394v-0.348
				c0-1.26-0.914-2.291-2.03-2.291h-75.335C174.519,356.236,173.605,357.268,173.605,358.527z"/>
			<path fill-rule="evenodd" clip-rule="evenodd" fill="#CA6D1E" d="M207.873,368.806h5.985v-9.931h-5.985V368.806L207.873,368.806z
				 M218.067,368.806h9.022v-9.931h-9.022V368.806L218.067,368.806z M233.706,368.806h9.022v-9.931h-9.022V368.806z"/>
		</g>
		<g>
			<path fill-rule="evenodd" clip-rule="evenodd" fill="#DC9418" d="M265.531,345.959v7.985c0,1.26-1.032,2.292-2.292,2.292h-74.81
				c-1.26,0-2.292-1.032-2.292-2.292v-7.985c0-1.262,1.032-2.293,2.292-2.293h74.81
				C264.499,343.666,265.531,344.697,265.531,345.959z"/>
			<path fill-rule="evenodd" clip-rule="evenodd" fill="#F0CA46" d="M265.531,345.957v0.349h-79.394v-0.349
				c0-1.26,0.914-2.291,2.03-2.291h75.333C264.617,343.666,265.531,344.697,265.531,345.957z"/>
			<path fill-rule="evenodd" clip-rule="evenodd" fill="#CA6D1E" d="M231.263,356.236h-5.984v-9.931h5.984V356.236L231.263,356.236z
				 M221.067,356.236h-9.021v-9.931h9.021V356.236L221.067,356.236z M205.431,356.236h-9.022v-9.931h9.022V356.236z"/>
		</g>
		<g>
			<path fill-rule="evenodd" clip-rule="evenodd" fill="#DC9418" d="M179.59,333.389v7.985c0,1.26,1.032,2.292,2.292,2.292h74.81
				c1.26,0,2.292-1.032,2.292-2.292v-7.985c0-1.261-1.032-2.293-2.292-2.293h-74.81C180.622,331.096,179.59,332.128,179.59,333.389z
				"/>
			<path fill-rule="evenodd" clip-rule="evenodd" fill="#F0CA46" d="M179.59,333.388v0.349h79.394v-0.349
				c0-1.26-0.913-2.292-2.03-2.292h-75.334C180.504,331.096,179.59,332.128,179.59,333.388z"/>
			<path fill-rule="evenodd" clip-rule="evenodd" fill="#CA6D1E" d="M213.857,343.666h5.986v-9.93h-5.986V343.666L213.857,343.666z
				 M224.054,343.666h9.021v-9.93h-9.021V343.666L224.054,343.666z M239.69,343.666h9.022v-9.93h-9.022V343.666z"/>
		</g>
		<g>
			<path fill-rule="evenodd" clip-rule="evenodd" fill="#DC9418" d="M248.138,320.818v7.986c0,1.26-1.031,2.292-2.293,2.292h-74.808
				c-1.261,0-2.292-1.032-2.292-2.292v-7.986c0-1.261,1.031-2.293,2.292-2.293h74.808
				C247.106,318.525,248.138,319.558,248.138,320.818z"/>
			<path fill-rule="evenodd" clip-rule="evenodd" fill="#F0CA46" d="M248.138,320.818v0.348h-79.393v-0.348
				c0-1.261,0.913-2.293,2.029-2.293h75.334C247.225,318.525,248.138,319.558,248.138,320.818z"/>
			<path fill-rule="evenodd" clip-rule="evenodd" fill="#CA6D1E" d="M213.87,331.096h-5.985v-9.93h5.985V331.096L213.87,331.096z
				 M203.675,331.096h-9.022v-9.93h9.022V331.096L203.675,331.096z M188.036,331.096h-9.021v-9.93h9.021V331.096z"/>
		</g>
		<g>
			<path fill-rule="evenodd" clip-rule="evenodd" fill="#DC9418" d="M188.817,308.248v7.986c0,1.261,1.031,2.291,2.293,2.291h74.808
				c1.261,0,2.292-1.03,2.292-2.291v-7.986c0-1.261-1.031-2.292-2.292-2.292H191.11
				C189.849,305.956,188.817,306.987,188.817,308.248z"/>
			<path fill-rule="evenodd" clip-rule="evenodd" fill="#F0CA46" d="M188.817,308.248v0.349h79.393v-0.349
				c0-1.261-0.913-2.292-2.029-2.292h-75.334C189.73,305.956,188.817,306.987,188.817,308.248z"/>
			<path fill-rule="evenodd" clip-rule="evenodd" fill="#CA6D1E" d="M223.085,318.525h5.985v-9.929h-5.985V318.525L223.085,318.525z
				 M233.28,318.525h9.022v-9.929h-9.022V318.525L233.28,318.525z M248.919,318.525h9.021v-9.929h-9.021V318.525z"/>
		</g>
		<g>
			<path fill-rule="evenodd" clip-rule="evenodd" fill="#DC9418" d="M262.053,295.679v7.985c0,1.261-1.03,2.292-2.292,2.292h-74.808
				c-1.261,0-2.292-1.031-2.292-2.292v-7.985c0-1.262,1.031-2.292,2.292-2.292h74.808
				C261.022,293.387,262.053,294.417,262.053,295.679z"/>
			<path fill-rule="evenodd" clip-rule="evenodd" fill="#F0CA46" d="M262.053,295.679v0.348h-79.392v-0.348
				c0-1.262,0.913-2.292,2.028-2.292h75.335C261.141,293.387,262.053,294.417,262.053,295.679z"/>
			<path fill-rule="evenodd" clip-rule="evenodd" fill="#CA6D1E" d="M227.785,305.956H221.8v-9.93h5.985V305.956L227.785,305.956z
				 M217.589,305.956h-9.021v-9.93h9.021V305.956L217.589,305.956z M201.952,305.956h-9.022v-9.93h9.022V305.956z"/>
		</g>
		<g>
			<path fill-rule="evenodd" clip-rule="evenodd" fill="#F0CA46" d="M182.063,381.375c19.567,0,35.526-15.959,35.526-35.527
				c0-19.566-15.959-35.526-35.526-35.526c-19.566,0-35.526,15.96-35.526,35.526C146.536,365.416,162.496,381.375,182.063,381.375z"
				/>
			<path fill-rule="evenodd" clip-rule="evenodd" fill="#E9B518" d="M182.063,375.519c16.343,0,29.67-13.328,29.67-29.671
				c0-16.341-13.327-29.669-29.67-29.669c-16.341,0-29.669,13.328-29.669,29.669C152.394,362.19,165.722,375.519,182.063,375.519z"
				/>
			<path fill-rule="evenodd" clip-rule="evenodd" fill="#FFFFFF" d="M180.68,362.288c-2.454-0.115-5.006-0.608-7.122-1.896
				c-1.703-1.036-2.993-2.502-2.993-4.579c0-0.857,0.257-1.636,0.869-2.249c0.612-0.611,1.392-0.868,2.249-0.868
				c2.166,0,3.101,2.216,3.547,4.003c0.05,0.195,0.098,0.391,0.146,0.586c0.168,0.667,0.515,1.2,1.088,1.582
				c0.639,0.428,1.4,0.571,2.158,0.571h0.058v-11.343c-2.424-1.107-5.247-2.637-7.036-4.606c-1.491-1.645-2.249-3.583-2.249-5.803
				c0-2.512,0.844-4.688,2.66-6.434c1.827-1.759,4.14-2.548,6.625-2.723v-3.061c0-0.21,0.171-0.383,0.382-0.383h2.297
				c0.211,0,0.382,0.173,0.382,0.383v3.01c2.261,0.143,4.607,0.631,6.54,1.846c1.607,1.01,2.744,2.421,2.744,4.38
				c0,0.826-0.25,1.576-0.849,2.156c-0.609,0.588-1.388,0.815-2.221,0.815c-0.717,0-1.413-0.18-1.933-0.698
				c-0.63-0.63-1.024-2.124-1.224-2.967c-0.173-0.723-0.483-1.678-1.089-2.158c-0.512-0.407-1.288-0.557-1.97-0.607v9.712
				c2.585,1.187,5.503,2.806,7.404,4.927c1.618,1.806,2.418,3.938,2.418,6.362c0,2.618-0.854,4.906-2.729,6.749
				c-1.932,1.895-4.458,2.81-7.093,3.165v4.069c0,0.21-0.171,0.383-0.382,0.383h-2.297c-0.211,0-0.382-0.173-0.382-0.383V362.288
				L180.68,362.288z M180.68,339.48v-8.112c-0.946,0.145-1.784,0.531-2.473,1.233c-0.76,0.773-1.112,1.704-1.112,2.787
				c0,0.893,0.314,1.652,0.924,2.304C178.701,338.426,179.729,339.022,180.68,339.48L180.68,339.48z M183.74,359.223
				c1.038-0.208,1.98-0.653,2.704-1.465c0.819-0.918,1.125-2.054,1.125-3.264c0-1.11-0.321-2.102-1.035-2.956
				c-0.72-0.859-1.761-1.501-2.794-1.98V359.223z"/>
			<path fill-rule="evenodd" clip-rule="evenodd" fill="#DC9418" d="M182.063,319.077c14.786,0,26.772,11.986,26.772,26.771
				c0,14.786-11.986,26.772-26.772,26.772c-14.785,0-26.771-11.986-26.771-26.772C155.291,331.063,167.277,319.077,182.063,319.077
				L182.063,319.077z M211.732,345.849c0-16.386-13.283-29.669-29.67-29.669c-16.386,0-29.669,13.283-29.669,29.669
				c0,16.387,13.283,29.67,29.669,29.67C198.449,375.519,211.732,362.235,211.732,345.849z"/>
		</g>
	</g>
	<g>
		<g>
			<g>
				<path fill-rule="evenodd" clip-rule="evenodd" fill="#F0CA46" d="M85.613,154.956c16.641,0,30.213-13.571,30.213-30.211
					c0-16.641-13.572-30.213-30.213-30.213s-30.212,13.572-30.212,30.213C55.401,141.385,68.973,154.956,85.613,154.956z"/>
				<path fill-rule="evenodd" clip-rule="evenodd" fill="#E9B518" d="M85.613,149.976c13.897,0,25.232-11.334,25.232-25.231
					c0-13.897-11.335-25.232-25.232-25.232c-13.896,0-25.232,11.335-25.232,25.232C60.381,138.641,71.717,149.976,85.613,149.976z"
					/>
				<path fill-rule="evenodd" clip-rule="evenodd" fill="#FFFFFF" d="M84.437,138.726c-2.087-0.099-4.258-0.519-6.057-1.614
					c-1.448-0.881-2.545-2.127-2.545-3.893c0-0.73,0.219-1.392,0.739-1.913c0.521-0.521,1.184-0.739,1.912-0.739
					c1.842,0,2.637,1.885,3.017,3.404c0.042,0.166,0.082,0.333,0.124,0.499c0.143,0.567,0.438,1.021,0.926,1.346
					c0.544,0.363,1.19,0.485,1.836,0.485h0.048v-9.646c-2.062-0.942-4.462-2.242-5.983-3.918c-1.268-1.397-1.912-3.047-1.912-4.934
					c0-2.136,0.717-3.987,2.262-5.471c1.555-1.496,3.521-2.167,5.634-2.316v-2.603c0-0.178,0.146-0.325,0.324-0.325h1.954
					c0.179,0,0.325,0.146,0.325,0.325v2.56c1.923,0.121,3.917,0.536,5.562,1.57c1.366,0.859,2.334,2.059,2.334,3.725
					c0,0.702-0.212,1.34-0.723,1.833c-0.518,0.5-1.18,0.694-1.889,0.694c-0.607,0-1.201-0.152-1.643-0.594
					c-0.535-0.535-0.871-1.807-1.042-2.523c-0.146-0.614-0.41-1.427-0.926-1.835c-0.434-0.345-1.095-0.473-1.674-0.516v8.26
					c2.197,1.008,4.679,2.386,6.296,4.188c1.377,1.537,2.057,3.349,2.057,5.411c0,2.227-0.726,4.173-2.321,5.739
					c-1.643,1.612-3.791,2.391-6.031,2.693v3.46c0,0.179-0.146,0.325-0.325,0.325h-1.954c-0.178,0-0.324-0.146-0.324-0.325V138.726
					L84.437,138.726z M84.437,119.329v-6.899c-0.805,0.123-1.517,0.45-2.103,1.048c-0.646,0.659-0.945,1.449-0.945,2.37
					c0,0.759,0.267,1.405,0.785,1.959C82.756,118.432,83.629,118.939,84.437,119.329L84.437,119.329z M87.04,136.118
					c0.883-0.177,1.685-0.556,2.299-1.246c0.697-0.78,0.958-1.746,0.958-2.775c0-0.944-0.273-1.788-0.881-2.514
					c-0.613-0.731-1.498-1.276-2.376-1.684V136.118z"/>
				<path fill-rule="evenodd" clip-rule="evenodd" fill="#DC9418" d="M85.613,101.978c12.574,0,22.768,10.193,22.768,22.767
					c0,12.574-10.193,22.767-22.768,22.767s-22.767-10.193-22.767-22.767C62.847,112.17,73.039,101.978,85.613,101.978
					L85.613,101.978z M110.846,124.745c0-13.936-11.297-25.232-25.232-25.232c-13.935,0-25.232,11.296-25.232,25.232
					c0,13.935,11.298,25.231,25.232,25.231C99.549,149.976,110.846,138.679,110.846,124.745z"/>
			</g>
			<g>
				<path fill-rule="evenodd" clip-rule="evenodd" fill="#F0CA46" d="M145.911,93.973c16.641,0,30.213-13.572,30.213-30.212
					c0-16.641-13.572-30.213-30.213-30.213c-16.64,0-30.212,13.572-30.212,30.213C115.699,80.4,129.271,93.973,145.911,93.973z"/>
				<path fill-rule="evenodd" clip-rule="evenodd" fill="#E9B518" d="M145.911,88.993c13.897,0,25.232-11.335,25.232-25.232
					s-11.335-25.232-25.232-25.232c-13.896,0-25.231,11.335-25.231,25.232S132.015,88.993,145.911,88.993z"/>
				<path fill-rule="evenodd" clip-rule="evenodd" fill="#DC9418" d="M145.911,40.993c12.574,0,22.768,10.193,22.768,22.767
					c0,12.574-10.193,22.767-22.768,22.767c-12.573,0-22.767-10.193-22.767-22.767C123.145,51.186,133.338,40.993,145.911,40.993
					L145.911,40.993z M171.144,63.76c0-13.936-11.297-25.232-25.232-25.232c-13.935,0-25.231,11.296-25.231,25.232
					s11.297,25.232,25.231,25.232C159.847,88.993,171.144,77.696,171.144,63.76z"/>
				<path fill-rule="evenodd" clip-rule="evenodd" fill="#FFFFFF" d="M151.263,56.522l8.768,1.293
					c0.606,0.089,1.079,0.489,1.268,1.071c0.189,0.583,0.043,1.183-0.396,1.612l-6.334,6.201l1.48,8.738
					c0.102,0.605-0.132,1.177-0.628,1.538c-0.495,0.36-1.112,0.405-1.654,0.121l-7.855-4.107l-7.854,4.107
					c-0.544,0.284-1.159,0.239-1.656-0.121c-0.495-0.36-0.728-0.933-0.626-1.538l1.48-8.738l-6.334-6.201
					c-0.438-0.429-0.586-1.029-0.396-1.612c0.189-0.583,0.662-0.982,1.269-1.071l8.768-1.293l3.94-7.94
					c0.271-0.548,0.797-0.875,1.409-0.875c0.613,0,1.139,0.326,1.412,0.875L151.263,56.522z"/>
			</g>
		</g>
		<path fill-rule="evenodd" clip-rule="evenodd" fill="#E6BBC6" d="M159.72,136.863c-4.883,5.27-11.032,8.672-17.549,10.172
			c-5.074,1.168-10.373,1.179-15.471,0.019l0.15,0.313c0.511,1.068,0.059,2.348-1.009,2.859c-1.068,0.511-2.348,0.059-2.859-1.009
			l-2.228-4.633c-0.283-0.531-0.342-1.178-0.108-1.783c0.117-0.302,0.294-0.563,0.514-0.773l4.729-4.562
			c0.854-0.822,2.213-0.795,3.035,0.059s0.795,2.213-0.06,3.035l-2.154,2.078c4.751,1.242,9.737,1.306,14.502,0.209
			c5.699-1.313,11.083-4.293,15.362-8.911c4.236-4.572,6.791-10.096,7.691-15.813c0.929-5.899,0.102-12.013-2.451-17.504
			c-0.497-1.077-0.025-2.354,1.052-2.851c1.077-0.497,2.354-0.026,2.85,1.051c2.908,6.253,3.848,13.225,2.787,19.96
			C167.475,125.328,164.556,131.646,159.72,136.863z"/>
		<path fill-rule="evenodd" clip-rule="evenodd" fill="#E6BBC6" d="M71.623,44.853c5.791-4.165,12.448-6.279,19.098-6.479
			c5.204-0.158,10.403,0.864,15.178,2.997l-0.088-0.34c-0.293-1.146,0.4-2.314,1.547-2.607s2.314,0.4,2.605,1.547l1.297,5.034
			c0.041,0.151,0.066,0.307,0.074,0.464l0.001,0.16c-0.01,0.377-0.119,0.755-0.335,1.094c-0.172,0.271-0.396,0.49-0.65,0.653
			l0.002,0.003l-5.526,3.551c-0.998,0.641-2.328,0.351-2.968-0.647c-0.641-0.999-0.351-2.328,0.647-2.968l2.521-1.62
			c-4.418-2.145-9.298-3.18-14.187-3.032c-5.839,0.176-11.695,2.05-16.795,5.745l-0.003,0.002
			c-6.763,4.902-10.899,12.078-12.117,19.716c-1.213,7.608,0.466,15.681,5.321,22.427c0.678,0.846,0.625,2.083-0.158,2.867
			c-0.841,0.84-2.204,0.84-3.044,0c-0.113-0.115-0.213-0.238-0.296-0.369c-5.534-7.697-7.447-16.911-6.061-25.598
			c1.385-8.692,6.07-16.854,13.728-22.447C71.481,44.949,71.552,44.899,71.623,44.853z"/>
	</g>
	<g>
		<path fill-rule="evenodd" clip-rule="evenodd" fill="#082E61" d="M436.469,172.373v0.048v36.12c0,1.021,0.581,1.89,1.523,2.28
			c0.94,0.39,1.966,0.186,2.688-0.535l19.07-19.071h77.781c7.212,0,13.113-5.901,13.113-13.114V90.153
			c0-7.213-5.901-13.115-13.113-13.115h-87.949c-7.212,0-13.113,5.901-13.113,13.115V172.373z"/>
		<path fill-rule="evenodd" clip-rule="evenodd" fill="#CB516A" d="M430.349,172.373v0.049v36.119c0,1.019,0.581,1.89,1.523,2.28
			c0.942,0.39,1.969,0.186,2.689-0.535l19.071-19.071h77.778c7.215,0,13.116-5.901,13.116-13.115V90.153
			c0-7.213-5.901-13.115-13.116-13.115h-87.948c-7.213,0-13.114,5.901-13.114,13.115V172.373z"/>
		<path fill-rule="evenodd" clip-rule="evenodd" fill="#FFFFFF" d="M449.604,91.048h75.667c3.147,0,5.721,2.573,5.721,5.719v74.719
			c0,3.146-2.573,5.72-5.721,5.72h-75.667c-3.147,0-5.722-2.574-5.722-5.72V96.767C443.883,93.621,446.457,91.048,449.604,91.048z"
			/>
		<g>
			<path fill-rule="evenodd" clip-rule="evenodd" fill="#082E61" d="M450.353,146.695c0,8.252,0,16.307,0,24.477
				c8.185,0,16.239,0,24.487,0c0-8.303,0-16.416,0-24.477C466.55,146.695,458.434,146.695,450.353,146.695L450.353,146.695z
				 M471.343,150.129L471.343,150.129c0,5.866,0,11.629,0,17.513c-5.81,0-11.511,0-17.404,0c0-5.757,0-11.52,0-17.513
				C459.797,150.129,465.499,150.129,471.343,150.129z"/>
			<path fill-rule="evenodd" clip-rule="evenodd" fill="#73B5A9" d="M450.429,121.619c8.202,0,16.197,0,24.424,0
				c0-8.343,0-16.457,0-24.557c-8.278,0-16.392,0-24.424,0C450.429,105.362,450.429,113.477,450.429,121.619L450.429,121.619z
				 M471.36,100.555L471.36,100.555c0,5.79,0,11.493,0,17.393c-5.736,0-11.499,0-17.514,0c0-5.836,0-11.539,0-17.393
				C459.706,100.555,465.467,100.555,471.36,100.555z"/>
			<path fill-rule="evenodd" clip-rule="evenodd" fill="#73B5A9" d="M524.523,171.154c0-8.189,0-16.243,0-24.476
				c-8.32,0-16.434,0-24.478,0c0,8.296,0,16.41,0,24.476C508.304,171.154,516.358,171.154,524.523,171.154L524.523,171.154z
				 M503.527,167.582L503.527,167.582c0-5.758,0-11.521,0-17.42c5.766,0,11.468,0,17.467,0c0,5.833,0,11.535,0,17.42
				C515.217,167.582,509.453,167.582,503.527,167.582z"/>
			<path fill-rule="evenodd" clip-rule="evenodd" fill="#082E61" d="M453.805,139.362c0,0.025,0,0.05,0,0.076
				c-0.026,0-0.051,0-0.076,0L453.805,139.362z"/>
			<path fill-rule="evenodd" clip-rule="evenodd" fill="#082E61" d="M467.844,139.26c0-2.436,0-4.597,0-6.821
				c-4.771,0-9.354,0-14.039,0c0,1.208,0,2.271,0,3.331c3.478,0,6.96,0,10.705,0c0,2.586,0,4.809,0,6.998c3.617,0,6.956,0,10.338,0
				c0-1.171,0-2.204,0-3.508C472.463,139.26,470.24,139.26,467.844,139.26z"/>
			<path fill-rule="evenodd" clip-rule="evenodd" fill="#082E61" d="M453.879,128.619c0-1.103,0-2.084,0-3.231
				c7.144,0,14.081,0,21.022,0c0,1.149,0,2.129,0,3.231C467.856,128.619,460.922,128.619,453.879,128.619z"/>
			<path fill-rule="evenodd" clip-rule="evenodd" fill="#082E61" d="M453.805,139.362l-0.076,0.076c0-0.025,0-0.05,0-0.076
				C453.754,139.362,453.778,139.362,453.805,139.362z"/>
			<path fill-rule="evenodd" clip-rule="evenodd" fill="#082E61" d="M450.385,135.909c1.193,0,2.222,0,3.344,0
				c0,2.412,0,4.637,0,6.859c-1.109,0-2.22,0-3.344,0C450.385,140.269,450.385,138.059,450.385,135.909z"/>
			<path fill-rule="evenodd" clip-rule="evenodd" fill="#082E61" d="M474.859,135.654c-1.195,0-2.225,0-3.261,0
				c0-1.153,0-2.126,0-3.215c1.266,0,2.239,0,3.261,0C474.859,133.609,474.859,134.641,474.859,135.654z"/>
			<path fill-rule="evenodd" clip-rule="evenodd" fill="#082E61" d="M506.885,135.824l-0.006-0.005c0,0.025,0,0.049,0,0.074
				c0.027,0,0.055,0,0.079,0c0-0.024,0-0.049,0-0.074c-0.024,0-0.052,0-0.079,0L506.885,135.824z"/>
			<path fill-rule="evenodd" clip-rule="evenodd" fill="#082E61" d="M503.838,132.349c1.058,0,2.123,0,3.472,0
				c0,1.229,0,2.351,0,3.47c-1.119,0-2.241,0-3.472,0C503.838,134.473,503.838,133.407,503.838,132.349z"/>
			<path fill-rule="evenodd" clip-rule="evenodd" fill="#082E61" d="M500.046,125.344c1.058,0,2.123,0,3.47,0
				c0,1.229,0,2.351,0,3.471c0,1.229,0,2.351,0,3.471c-1.12,0-2.242,0-3.47,0c0-1.346,0-2.412,0-3.471
				C500.046,127.469,500.046,126.403,500.046,125.344z"/>
			<path fill-rule="evenodd" clip-rule="evenodd" fill="#082E61" d="M503.516,121.873c-1.12,0-2.242,0-3.47,0
				c0-1.347,0-2.413,0-3.472c1.058,0,2.123,0,3.47,0C503.516,119.632,503.516,120.752,503.516,121.873z"/>
			<path fill-rule="evenodd" clip-rule="evenodd" fill="#082E61" d="M457.447,153.789c0,3.533,0,6.862,0,10.3
				c3.462,0,6.789,0,10.301,0c0-3.594,0-6.981,0-10.3C464.173,153.789,460.784,153.789,457.447,153.789z"/>
			<path fill-rule="evenodd" clip-rule="evenodd" fill="#73B5A9" d="M457.481,104.089c0,3.562,0,6.949,0,10.3
				c3.561,0,6.949,0,10.32,0c0-3.522,0-6.851,0-10.3C464.35,104.089,461.021,104.089,457.481,104.089z"/>
			<path fill-rule="evenodd" clip-rule="evenodd" fill="#73B5A9" d="M517.372,164.082c0-3.573,0-6.962,0-10.3
				c-3.565,0-6.954,0-10.311,0c0,3.526,0,6.854,0,10.3C510.517,164.082,513.844,164.082,517.372,164.082z"/>
			<path fill-rule="evenodd" clip-rule="evenodd" fill="#082E61" d="M507.502,135.893h10.527v7.016h-0.013c0,0.024,0,0.049,0,0.073
				c-0.024,0-0.049,0-0.073,0c0-0.024,0-0.049,0-0.073h-10.441V135.893z"/>
			<rect x="485.783" y="164.215" fill-rule="evenodd" clip-rule="evenodd" fill="#082E61" width="3.442" height="6.977"/>
			<rect x="478.74" y="164.215" fill-rule="evenodd" clip-rule="evenodd" fill="#082E61" width="3.445" height="6.977"/>
			<path fill-rule="evenodd" clip-rule="evenodd" fill="#082E61" d="M492.811,171.154c0-1.224,0-9.412,0-10.462
				c1.11,0,2.22,0,3.342,0c0,1.309,0,9.47,0,10.462C494.952,171.154,493.923,171.154,492.811,171.154z"/>
			<path fill-rule="evenodd" clip-rule="evenodd" fill="#082E61" d="M485.667,146.442h-3.511v-3.46h10.63v-3.4h-0.078
				c-1.125,0-2.158,0-3.47,0h-7.082v-3.474h3.558V114.58h0.03v-3.444h-0.03h-3.607h-3.339v3.444h3.339v14.052h-3.396v25.157h3.277
				v3.327h3.679v3.577h3.443v-3.577h3.598h0.078h3.366v-7.274h-3.366v-3.399h-3.676v3.399h3.598v3.874h-3.598h-3.443h-3.511v-3.874
				h3.511V146.442z"/>
			<path fill-rule="evenodd" clip-rule="evenodd" fill="#082E61" d="M485.744,104.093h-6.977v3.444h6.843c0,0.005,0,0.01,0,0.015
				c0.025,0,0.052,0,0.077,0l-0.016-0.015c0.008,0.008,0.016,0.015,0.016,0.015c0-0.005,0-0.01,0-0.015h0.057V104.093z"/>
			<path fill-rule="evenodd" clip-rule="evenodd" fill="#082E61" d="M478.805,97.168c0,1.2,0,2.228,0,3.341c1.223,0,9.409,0,10.46,0
				c0-1.11,0-2.22,0-3.341C487.956,97.168,479.796,97.168,478.805,97.168z"/>
			<path fill-rule="evenodd" clip-rule="evenodd" fill="#082E61" d="M497.531,100.583h1.107h1.479v8.03h3.398v-8.03h3.551v3.533
				h3.445v-3.533h3.598v3.533h3.445v-3.533h3.582c0,2.818,0,6.386,0,7.055c1.11,0,2.22,0,3.342,0c0-1.309,0-9.47,0-10.462
				c-9.437,0-18.874-0.037-28.309-0.037v1.639v1.639v0.166H497.531z"/>
			<polygon fill-rule="evenodd" clip-rule="evenodd" fill="#082E61" points="492.843,104.093 491.482,104.093 489.265,104.093 
				489.265,107.537 492.843,107.537 492.843,111.136 492.843,111.213 492.843,114.58 500.117,114.58 500.117,111.213 
				503.516,111.213 503.516,107.537 500.117,107.537 500.117,111.136 496.241,111.136 496.241,107.537 496.241,104.093 			"/>
			<polygon fill-rule="evenodd" clip-rule="evenodd" fill="#082E61" points="489.169,132.286 493.069,132.286 493.069,128.61 
				496.468,128.61 496.468,132.286 500.046,132.286 500.046,135.73 496.468,135.73 496.468,139.407 493.069,139.407 493.069,135.73 
				489.169,135.73 			"/>
			<path fill-rule="evenodd" clip-rule="evenodd" fill="#082E61" d="M514.109,107.638v3.577h-3.598h-0.079h-0.039
				c0-1.125,0-2.217,0-3.551c-1.103,0-2.215,0-3.327,0c0,1.184,0,2.367,0,3.551v7.273h3.366v3.4h3.677v-3.4h-3.598v-3.873h3.598
				h3.445h3.509v3.873h-3.509v3.4h3.509v3.46h-10.631v3.4h0.079c1.127,0,2.158,0,3.47,0h7.082v10.948h3.444v-25.155h-3.277v-3.327
				h-3.676v-3.577H514.109z"/>
			<path fill-rule="evenodd" clip-rule="evenodd" fill="#082E61" d="M492.873,118.75c1.055,0,2.121,0,3.469,0
				c0,1.229,0,2.352,0,3.471c0,1.23,0,2.352,0,3.471c-1.119,0-2.241,0-3.469,0c0-1.346,0-2.411,0-3.471
				C492.873,120.876,492.873,119.81,492.873,118.75z"/>
		</g>
	</g>
	<g>
		<path fill-rule="evenodd" clip-rule="evenodd" fill="#F0D7DD" d="M266.462,162.63v-49.041h49.147c3.766,0,6.845,3.08,6.845,6.845
			v35.351c0,3.765-3.079,6.845-6.845,6.845H266.462z"/>
		<path fill-rule="evenodd" clip-rule="evenodd" fill="#F0CA46" d="M194.804,104.66h120.806c3.766,0,6.845,3.08,6.845,6.845v35.352
			c0,3.765-3.079,6.845-6.845,6.845H194.804c-3.765,0-6.846-3.08-6.846-6.845v-35.352
			C187.958,107.739,191.039,104.66,194.804,104.66z"/>
		<path fill-rule="evenodd" clip-rule="evenodd" fill="#FFFFFF" d="M297.744,145.256c8.854,0,16.075-7.221,16.075-16.076
			s-7.221-16.076-16.075-16.076s-16.076,7.222-16.076,16.076S288.89,145.256,297.744,145.256z"/>
		<path fill-rule="evenodd" clip-rule="evenodd" fill="#CB516A" d="M289.695,132.601c-0.566-0.565-0.85-1.307-0.85-2.048
			s0.283-1.483,0.85-2.048c0.564-0.565,1.307-0.849,2.047-0.849c0.742,0,1.482,0.284,2.049,0.849l1.814,1.814l5.758-8.422
			c0.45-0.658,1.125-1.073,1.854-1.211c0.727-0.137,1.506,0.004,2.163,0.453c0.658,0.45,1.073,1.125,1.211,1.854
			c0.137,0.727-0.004,1.506-0.453,2.164l-7.675,11.228c-0.061,0.093-0.112,0.169-0.152,0.223l-0.004-0.002
			c-0.086,0.112-0.166,0.204-0.236,0.275c-0.566,0.565-1.307,0.849-2.047,0.849c-0.742,0-1.483-0.283-2.049-0.849L289.695,132.601z"
			/>
		<path fill-rule="evenodd" clip-rule="evenodd" fill="#FFFFFF" d="M268.264,121.568c0.933,0,1.688,0.755,1.688,1.688
			c0,0.932-0.756,1.688-1.688,1.688h-62.171c-0.933,0-1.688-0.756-1.688-1.688c0-0.932,0.756-1.688,1.688-1.688H268.264
			L268.264,121.568z M226.799,133.418c0.932,0,1.687,0.755,1.687,1.687c0,0.932-0.755,1.688-1.687,1.688h-5.798
			c-0.933,0-1.688-0.756-1.688-1.688c0-0.931,0.755-1.687,1.688-1.687H226.799L226.799,133.418z M268.264,133.418
			c0.933,0,1.688,0.755,1.688,1.687c0,0.932-0.756,1.688-1.688,1.688H235.08c-0.931,0-1.687-0.756-1.687-1.688
			c0-0.931,0.756-1.687,1.687-1.687H268.264z"/>
	</g>
	<g>
		<path fill-rule="evenodd" clip-rule="evenodd" fill="#082E61" d="M163.538,273.398v0.031v22.35c0,0.63-0.36,1.169-0.942,1.41
			s-1.218,0.114-1.663-0.331l-11.801-11.801h-48.128c-4.463,0-8.115-3.651-8.115-8.114v-54.419c0-4.463,3.652-8.114,8.115-8.114
			h54.419c4.464,0,8.115,3.651,8.115,8.114V273.398z"/>
		<path fill-rule="evenodd" clip-rule="evenodd" fill="#73B5A9" d="M167.557,273.4v0.029v22.35c0,0.63-0.36,1.169-0.942,1.41
			c-0.583,0.241-1.218,0.114-1.664-0.331l-11.8-11.801h-48.127c-4.464,0-8.116-3.651-8.116-8.114v-54.419
			c0-4.463,3.652-8.114,8.116-8.114h54.417c4.464,0,8.116,3.651,8.116,8.114V273.4z"/>
		<path fill-rule="evenodd" clip-rule="evenodd" fill="#FFFFFF" d="M118.18,242.183c0,1.7,0.143,2.931,0.425,3.689
			c0.28,0.751,0.706,1.131,1.267,1.131c0.563,0,0.979-0.373,1.262-1.108c0.273-0.743,0.409-1.981,0.409-3.712
			c0-1.709-0.136-2.931-0.409-3.69c-0.282-0.751-0.699-1.131-1.262-1.131c-0.576,0-1.001,0.387-1.281,1.153
			C118.315,239.282,118.18,240.504,118.18,242.183L118.18,242.183z M128.262,242.092c0,3.264-0.737,5.785-2.21,7.569
			c-1.466,1.783-3.554,2.68-6.271,2.68c-2.552,0-4.57-0.927-6.058-2.771c-1.489-1.846-2.241-4.336-2.241-7.478
			c0-3.257,0.729-5.771,2.18-7.524c1.458-1.753,3.491-2.634,6.119-2.634c2.597,0,4.661,0.91,6.187,2.732
			C127.494,236.488,128.262,238.963,128.262,242.092L128.262,242.092z M144.462,232.389l-18.03,32.524h-6.605l18.031-32.524H144.462
			L144.462,232.389z M142.905,255.127c0,1.708,0.139,2.938,0.419,3.698c0.28,0.758,0.706,1.138,1.268,1.138
			c0.638,0,1.078-0.434,1.328-1.307c0.244-0.865,0.364-2.041,0.364-3.529c0-1.481-0.12-2.657-0.364-3.531
			c-0.25-0.866-0.69-1.298-1.328-1.298c-0.577,0-1.002,0.388-1.275,1.154C143.044,252.227,142.905,253.449,142.905,255.127
			L142.905,255.127z M152.981,255.042c0-3.135-0.768-5.61-2.294-7.431c-1.525-1.83-3.591-2.742-6.188-2.742
			c-2.619,0-4.66,0.882-6.111,2.635c-1.458,1.762-2.179,4.274-2.179,7.538c0,3.129,0.744,5.62,2.231,7.464
			c1.489,1.846,3.516,2.771,6.059,2.771c2.703,0,4.791-0.896,6.265-2.681C152.244,260.806,152.981,258.292,152.981,255.042z"/>
	</g>
	<path fill-rule="evenodd" clip-rule="evenodd" fill="#73B5A9" d="M207.771,194.313c0-0.932,0.756-1.688,1.688-1.688
		s1.688,0.756,1.688,1.688v3.968h3.967c0.933,0,1.688,0.755,1.688,1.687c0,0.933-0.756,1.688-1.688,1.688h-3.967v3.967
		c0,0.934-0.756,1.688-1.688,1.688s-1.688-0.755-1.688-1.688v-3.967h-3.968c-0.932,0-1.687-0.755-1.687-1.688
		c0-0.932,0.755-1.687,1.687-1.687h3.968V194.313z"/>
	<path fill-rule="evenodd" clip-rule="evenodd" fill="#73B5A9" d="M493.67,37.003c0-0.932,0.756-1.688,1.688-1.688
		c0.934,0,1.688,0.755,1.688,1.688v3.967h3.967c0.933,0,1.688,0.756,1.688,1.688c0,0.932-0.756,1.688-1.688,1.688h-3.967v3.968
		c0,0.931-0.755,1.687-1.688,1.687c-0.932,0-1.688-0.755-1.688-1.687v-3.968h-3.967c-0.933,0-1.688-0.755-1.688-1.688
		c0-0.931,0.756-1.688,1.688-1.688h3.967V37.003z"/>
	<path fill-rule="evenodd" clip-rule="evenodd" fill="#E4AA4A" d="M472.34,231.571c0-0.932,0.755-1.687,1.686-1.687
		c0.933,0,1.688,0.755,1.688,1.687v3.969h3.967c0.933,0,1.688,0.755,1.688,1.687c0,0.933-0.755,1.688-1.688,1.688h-3.967v3.967
		c0,0.932-0.756,1.688-1.688,1.688c-0.931,0-1.686-0.757-1.686-1.688v-3.967h-3.97c-0.93,0-1.688-0.755-1.688-1.688
		c0-0.932,0.758-1.687,1.688-1.687h3.97V231.571z"/>
	<path fill-rule="evenodd" clip-rule="evenodd" fill="#C9456C" d="M227.963,38.194c0-0.932,0.755-1.688,1.687-1.688
		c0.933,0,1.688,0.755,1.688,1.688v3.967h3.968c0.932,0,1.687,0.755,1.687,1.688s-0.755,1.688-1.687,1.688h-3.968v3.967
		c0,0.932-0.756,1.688-1.688,1.688c-0.932,0-1.687-0.755-1.687-1.688v-3.967h-3.968c-0.932,0-1.688-0.755-1.688-1.688
		s0.756-1.688,1.688-1.688h3.968V38.194z"/>
	<path fill-rule="evenodd" clip-rule="evenodd" fill="#C9456C" d="M50.261,237.525c0-0.933,0.756-1.688,1.688-1.688
		c0.932,0,1.687,0.756,1.687,1.688v3.967h3.968c0.932,0,1.688,0.756,1.688,1.688c0,0.931-0.757,1.687-1.688,1.687h-3.968v3.968
		c0,0.932-0.755,1.688-1.687,1.688c-0.933,0-1.688-0.756-1.688-1.688v-3.968h-3.967c-0.932,0-1.688-0.756-1.688-1.687
		c0-0.933,0.756-1.688,1.688-1.688h3.967V237.525z"/>
	<g>
		<path fill-rule="evenodd" clip-rule="evenodd" fill="#F0CA46" d="M245.012,293.387c19.568,0,35.526-15.96,35.526-35.528
			c0-19.566-15.958-35.525-35.526-35.525c-19.566,0-35.525,15.959-35.525,35.525C209.486,277.427,225.445,293.387,245.012,293.387z"
			/>
		<path fill-rule="evenodd" clip-rule="evenodd" fill="#E9B518" d="M245.012,287.529c16.343,0,29.67-13.328,29.67-29.671
			c0-16.341-13.327-29.669-29.67-29.669c-16.342,0-29.669,13.328-29.669,29.669C215.343,274.201,228.67,287.529,245.012,287.529z"/>
		<path fill-rule="evenodd" clip-rule="evenodd" fill="#FFFFFF" d="M243.628,274.3c-2.454-0.116-5.005-0.609-7.121-1.897
			c-1.703-1.036-2.992-2.502-2.992-4.577c0-0.859,0.256-1.638,0.868-2.251c0.611-0.611,1.392-0.868,2.249-0.868
			c2.166,0,3.101,2.216,3.548,4.004c0.048,0.194,0.097,0.39,0.146,0.585c0.167,0.667,0.514,1.2,1.088,1.583
			c0.639,0.427,1.4,0.572,2.158,0.572h0.057v-11.345c-2.424-1.107-5.246-2.636-7.035-4.606c-1.491-1.644-2.249-3.583-2.249-5.803
			c0-2.511,0.844-4.688,2.658-6.434c1.829-1.758,4.142-2.548,6.626-2.723v-3.061c0-0.21,0.172-0.382,0.383-0.382h2.297
			c0.211,0,0.382,0.172,0.382,0.382v3.01c2.261,0.143,4.607,0.631,6.54,1.846c1.607,1.01,2.744,2.422,2.744,4.38
			c0,0.826-0.25,1.576-0.849,2.156c-0.609,0.588-1.388,0.815-2.221,0.815c-0.717,0-1.413-0.179-1.932-0.697
			c-0.631-0.63-1.025-2.125-1.226-2.968c-0.171-0.723-0.482-1.677-1.088-2.158c-0.512-0.407-1.288-0.557-1.97-0.606v9.713
			c2.585,1.185,5.502,2.804,7.403,4.925c1.619,1.807,2.419,3.938,2.419,6.362c0,2.618-0.854,4.907-2.729,6.749
			c-1.932,1.896-4.457,2.81-7.093,3.165v4.069c0,0.21-0.171,0.383-0.382,0.383h-2.297c-0.211,0-0.383-0.173-0.383-0.383V274.3
			L243.628,274.3z M243.628,251.491v-8.111c-0.946,0.144-1.783,0.53-2.472,1.232c-0.759,0.774-1.112,1.704-1.112,2.787
			c0,0.894,0.314,1.652,0.924,2.305C241.65,250.438,242.678,251.034,243.628,251.491L243.628,251.491z M246.689,271.233
			c1.038-0.208,1.979-0.653,2.704-1.465c0.819-0.917,1.125-2.052,1.125-3.264c0-1.11-0.32-2.102-1.035-2.955
			c-0.72-0.86-1.761-1.502-2.794-1.98V271.233z"/>
		<path fill-rule="evenodd" clip-rule="evenodd" fill="#DC9418" d="M245.012,231.088c14.786,0,26.772,11.986,26.772,26.772
			c0,14.785-11.986,26.771-26.772,26.771c-14.785,0-26.771-11.986-26.771-26.771C218.24,243.074,230.227,231.088,245.012,231.088
			L245.012,231.088z M274.682,257.86c0-16.387-13.283-29.671-29.67-29.671c-16.386,0-29.669,13.284-29.669,29.671
			c0,16.386,13.283,29.669,29.669,29.669C261.398,287.529,274.682,274.246,274.682,257.86z"/>
	</g>
</g>
</svg>
